<svg width="55" height="78" viewBox="0 0 55 78" fill="none" xmlns="http://www.w3.org/2000/svg">
<path d="M45.4328 5.94001C37.0853 -0.292161 25.3975 -1.9008 15.8012 2.45683C11.0044 4.63564 7.55292 8.49322 4.47719 12.667C0.253171 18.4004 -0.582901 23.655 0.33519 30.669C2.26265 45.3915 9.82434 55.0989 21.7304 63.3459C22.126 65.1529 22.4567 66.9706 22.7253 68.8015C22.6062 68.9536 22.5215 69.1388 22.5268 69.3889C22.5731 71.4341 22.3667 73.6618 22.6869 75.6806C22.8747 76.8712 23.6156 77.4533 24.7665 77.7337C26.3844 78.1279 28.3965 77.993 30.0528 77.9017C31.4431 77.8263 32.4552 77.5564 32.8004 76.1026C33.2132 74.363 33.3878 72.3403 33.4222 70.5544C33.4368 69.8029 33.3613 69.205 32.9711 68.8293C33.3256 66.9164 33.9765 64.7786 33.9196 62.8088C42.7605 55.9072 50.9943 47.184 53.8848 36.0584C56.6086 25.5718 54.5952 12.7807 45.4328 5.94001ZM30.4126 2.20945C53.4403 12.114 37.8155 46.4234 29.7697 61.474C29.7459 61.519 29.7472 61.5613 29.73 61.6063C29.4813 61.6168 29.2339 61.6301 28.9852 61.6393C29.4019 41.7906 29.4059 21.9272 27.2879 2.16446C28.3304 2.11948 29.3728 2.13272 30.4126 2.20945ZM24.6461 68.32C24.4199 66.7735 24.1394 65.2363 23.8232 63.707C26.5259 63.715 29.2246 63.6475 31.9234 63.4954C31.8294 65.104 31.3347 66.8013 31.0516 68.3332C28.9323 68.1229 26.7707 68.1731 24.6461 68.32ZM22.7319 2.73727C23.5878 2.55736 24.4516 2.4158 25.3208 2.31526C27.4242 22.0489 27.4176 41.8818 27.0022 61.7015C26.6754 61.7081 26.3487 61.7042 26.0219 61.7081C15.2773 46 3.44003 16.8116 22.7319 2.73727ZM8.55303 48.4395C4.32902 42.4084 2.6238 35.2369 2.00998 27.9795C1.06014 16.7587 8.51599 7.88864 18.1586 4.11176C3.21514 19.4045 13.1819 45.9445 23.6473 61.7227C23.3854 61.7214 23.1248 61.7306 22.8628 61.728C17.472 58.0172 12.3378 53.8435 8.55303 48.4395ZM31.0569 74.3511C30.8822 75.6224 30.7645 75.8115 29.4165 75.9399C28.7312 76.0047 28.0076 75.916 27.321 75.8962C26.7297 75.879 25.8407 76.055 25.293 75.8221C24.531 75.498 24.6395 75.0549 24.621 74.2704C24.5905 72.9435 24.5601 71.618 24.5297 70.2911C25.8327 70.1694 27.1398 70.049 28.4428 70.1906C29.3424 70.2885 30.4854 70.172 31.4379 70.3149C31.5662 71.618 31.2249 73.1274 31.0569 74.3511ZM52.9574 28.9016C52.1478 42.6703 42.9365 53.3593 32.4658 61.4488C32.438 61.4581 32.4194 61.4793 32.393 61.4898C32.2607 61.4978 32.1271 61.4991 31.9948 61.507C37.6766 50.7598 43.246 38.1989 44.1575 26.0573C44.7899 17.6305 42.4034 8.49851 35.8696 3.20427C46.8033 6.51019 53.6559 17.0285 52.9574 28.9016Z" fill="#95BAA8"/>
<path d="M4.64311 19.3819C2.85323 23.7739 3.66549 28.3709 4.60871 32.8648C4.87065 34.1137 6.78356 33.5858 6.52162 32.337C5.64454 28.154 4.89181 23.9935 6.55602 19.9097C7.03755 18.7283 5.11935 18.2137 4.64311 19.3819Z" fill="#95BAA8"/>
<path d="M7.27582 15.0454C5.99923 15.0454 5.99658 17.0298 7.27582 17.0298C8.55242 17.0298 8.55374 15.0454 7.27582 15.0454Z" fill="#95BAA8"/>
</svg>
