<svg width="56" height="78" viewBox="0 0 56 78" fill="none" xmlns="http://www.w3.org/2000/svg">
<path d="M55.5137 63.1652C53.5618 61.8343 51.2216 60.8743 48.9713 59.9406C51.2972 58.9766 53.5827 57.9074 55.5137 56.5437C55.8669 56.2938 56.0923 55.8717 55.9633 55.4298C54.6055 50.794 51.4796 46.349 49.5081 41.9368C49.2736 41.4134 48.6103 41.3884 48.1712 41.583C41.4112 44.5722 34.672 47.6101 27.9354 50.6533C21.217 47.6351 14.5899 44.2816 7.78551 41.4831C7.30079 41.2845 6.94115 41.5054 6.75743 41.8579C6.73397 41.8881 6.704 41.9026 6.68315 41.9368C4.00675 46.1793 2.95391 51.2162 0.15633 55.3811C0.0103918 55.5994 -0.01568 55.8098 0.0142894 56.0045C0.0142894 56.2938 0.147194 56.5713 0.50813 56.7304C2.83923 57.7614 5.16251 58.8109 7.48449 59.8604C5.15991 60.9006 2.83662 61.9461 0.50813 62.9771C0.160225 63.131 0.0260258 63.3953 0.0156017 63.6728C-0.0221858 63.8754 0.00258293 64.0976 0.157642 64.3264C2.86531 68.3362 4.09536 73.1008 6.68446 77.1842C6.70531 77.2171 6.73528 77.2316 6.75743 77.2605C6.94246 77.6116 7.30207 77.8326 7.7881 77.6366C14.5156 74.9223 21.1936 72.0382 27.8233 69.0753C34.5742 72.0895 41.4034 74.917 48.1725 77.8852C48.6521 78.0956 49.2241 78.0391 49.5094 77.5314C51.7624 73.523 54.8166 68.8057 55.9646 64.2765C56.0766 63.832 55.8799 63.4151 55.5137 63.1652ZM51.2112 50.0641C47.5171 51.6199 43.8856 53.3125 40.2306 54.959C39.084 55.4758 40.0769 57.1762 41.217 56.662C44.8316 55.0352 48.4162 53.348 52.0724 51.8185C52.079 51.8303 52.0842 51.8435 52.0907 51.8553C52.6445 52.9718 53.1579 54.1239 53.752 55.218C53.7612 55.2364 53.7729 55.2391 53.7833 55.2548C48.4136 58.0534 42.752 60.2325 37.2337 62.7023C27.5145 67.0527 17.807 71.453 7.93924 75.4562C7.61479 74.9025 7.30728 74.3423 7.01801 73.7715C13.3363 70.9335 19.7498 68.306 26.0278 65.3812C27.1679 64.8499 26.1763 63.1494 25.0414 63.6781C18.8103 66.5805 12.4399 69.1937 6.16716 72.008C5.60816 70.7876 5.0765 69.554 4.52272 68.3322C4.57614 68.3165 4.62697 68.3178 4.6817 68.2915C7.61479 66.8646 10.5896 65.5705 13.6308 64.3962C14.7944 63.9464 14.2888 62.0395 13.1109 62.4945C9.91461 63.7294 6.78217 65.0879 3.69923 66.5871C3.30702 65.7954 2.87833 65.0235 2.41967 64.2673C17.7054 57.4879 32.8959 50.4942 48.1855 43.7214C49.1563 45.8532 50.1753 47.9626 51.2112 50.0641ZM2.41184 55.4416C3.83604 53.0586 4.81461 50.4547 5.8896 47.8968C8.14512 49.0686 10.5505 49.9221 12.8412 51.0202C13.9709 51.562 14.9651 49.8616 13.8276 49.3172C11.4717 48.1888 8.99209 47.3208 6.68184 46.0965C7.06232 45.2719 7.48449 44.467 7.93924 43.6793C13.881 46.1596 19.6977 49.0436 25.5652 51.7238C21.9832 53.3427 18.3999 54.959 14.8166 56.5739C13.5527 56.0097 12.3409 55.3364 11.0939 54.7367C9.87686 54.1515 8.59986 53.6886 7.43236 53.0021C6.34304 52.3616 5.35797 54.066 6.44599 54.7051C7.61219 55.3903 8.89045 55.8545 10.1075 56.4397C10.9049 56.8238 11.6906 57.2301 12.4816 57.6273C11.6137 58.0179 10.7446 58.4019 9.87683 58.7912C7.39328 57.6655 4.90451 56.5476 2.41184 55.4416ZM49.9772 72.0895C49.9212 72.0619 49.8795 72.0237 49.8143 72.0053C47.2552 71.2847 44.9384 69.7723 42.4875 68.7518C41.3252 68.2678 40.8196 70.1761 41.9676 70.6547C44.3925 71.6634 46.6415 73.1232 49.1706 73.8636C48.8657 74.5159 48.5491 75.1537 48.2207 75.7797C42.2373 73.1692 36.2174 70.6481 30.2456 68.0087C30.3629 67.9561 30.4815 67.9062 30.5974 67.8536C33.7911 66.4109 36.9835 64.9709 40.1928 63.5676C40.2436 63.6045 40.2775 63.6492 40.3414 63.6794C42.15 64.5316 43.9612 65.4364 45.8336 66.1347C47.0154 66.5753 47.5249 64.6697 46.3535 64.2331C45.057 63.7505 43.7853 63.1481 42.5252 62.5471C42.6464 62.4958 42.7663 62.4393 42.8888 62.388C44.0055 61.9132 45.186 61.4529 46.3861 60.9808C48.4644 61.9093 50.5427 62.8417 52.5832 63.8543C53.0002 64.0621 53.4367 64.2567 53.8472 64.4843C53.8146 64.529 53.7898 64.554 53.7533 64.6092C52.2458 66.8514 51.1278 69.4948 49.9772 72.0895Z" fill="#95BAA8"/>
<path d="M39.2163 49.6418C33.8387 51.9853 28.396 54.1828 23.1423 56.8025C22.0138 57.3641 23.0042 59.0671 24.1287 58.5056C29.3837 55.8859 34.8264 53.6884 40.204 51.3448C41.3545 50.8425 40.3603 49.1434 39.2163 49.6418Z" fill="#95BAA8"/>
<path d="M34.6322 57.3787C33.1637 57.9613 31.8164 58.8319 30.3049 59.3067C29.1074 59.6828 29.6182 61.5871 30.8248 61.2096C32.3415 60.7336 33.6823 59.8656 35.1521 59.2817C36.3092 58.8214 35.8049 56.9132 34.6322 57.3787Z" fill="#95BAA8"/>
<path d="M27.8168 44.7365C39.4528 44.4933 48.1361 37.0866 46.5229 24.7456C45.1131 13.9578 33.8993 3.18185 24.0146 0.0387468C23.3345 -0.17693 22.5631 0.546383 22.8119 1.25259C25.0114 7.48751 17.8826 11.9299 14.1821 15.891C10.8763 19.4287 8.93481 23.8987 8.98432 28.8093C9.08987 39.3275 18.4273 44.4788 27.8168 44.7365ZM14.887 18.0333C18.7882 13.4357 26.0656 9.15374 25.1248 2.5335C33.0054 5.72263 41.3826 13.8842 43.9886 21.8984C47.9237 34.0053 39.2795 42.5259 27.8168 42.7652C21.8008 42.5995 15.5528 40.6992 12.4738 35.0285C9.51075 29.5708 11.0144 22.5968 14.887 18.0333Z" fill="#95BAA8"/>
<path d="M29.7347 40.9755C29.7803 40.9716 29.8115 40.9479 29.8545 40.9387C29.9027 40.9361 29.9444 40.9492 29.9952 40.94C35.5578 39.8735 40.5106 35.4258 39.5425 29.2948C38.5248 22.856 32.0332 19.8115 26.0719 20.4744C20.4233 21.103 16.122 26.2227 16.255 32.0065C16.4152 38.9634 23.9766 41.5423 29.7347 40.9755ZM18.4114 30.0786C19.2376 25.6414 22.7739 22.5154 27.2459 22.3615C31.5941 22.2129 36.165 24.179 37.4185 28.7083C38.9326 34.1817 34.4268 38.0363 29.5861 39.0108C24.2046 39.4895 17.0798 37.2354 18.4114 30.0786Z" fill="#95BAA8"/>
</svg>
