<svg width="105" height="78" viewBox="0 0 105 78" fill="none" xmlns="http://www.w3.org/2000/svg">
<path d="M104.689 73.5076C95.8065 50.0038 88.4314 25.9692 80.1238 2.26372C80.053 2.062 79.9504 1.89748 79.8265 1.76654C79.6142 1.49405 79.2903 1.30115 78.8444 1.29053C63.1723 0.918947 47.4878 1.425 31.8439 0.182838C31.552 -0.00649431 31.2176 -0.0383334 30.8814 0.039523C30.7628 0.0589871 30.6513 0.087327 30.5416 0.135102C30.5098 0.151028 30.4815 0.168708 30.4496 0.186402C30.2833 0.274875 30.1435 0.400505 30.032 0.559756C30.0161 0.58099 29.9913 0.588041 29.9754 0.609274C26.44 5.71418 24.5573 12.1798 22.1491 17.8722C19.6099 23.8777 17.0512 29.878 14.5333 35.8924C9.12228 48.8218 4.98172 62.1619 0.0856135 75.2824C-0.107258 75.7991 0.0466948 76.2061 0.338656 76.4874C0.547453 76.7829 0.878346 76.9899 1.36495 76.9634C5.01535 76.7581 9.53102 76.8572 14.2042 76.2167C19.4435 75.2789 23.5823 74.3375 26.7479 70.5155C28.3581 68.5708 29.8462 66.2051 31.0123 63.6871C30.9982 67.833 30.9468 71.9788 30.7893 76.1194C30.761 76.8625 31.421 77.4111 32.1164 77.4465C41.5335 77.9348 50.9028 78.478 60.2898 77.2607C74.8543 78.1259 89.3444 77.335 103.762 75.1408C104.213 75.0718 104.482 74.8329 104.615 74.5304C104.79 74.2632 104.845 73.9164 104.689 73.5076ZM20.2451 71.8001C21.9456 68.9884 22.618 65.3079 22.3649 62.0079C24.8386 62.9174 27.346 62.6272 29.3578 61.3939C27.6432 65.9149 24.4228 69.6856 20.2451 71.8001ZM30.6301 55.1919C29.0712 59.4192 24.8475 60.9869 21.328 58.4548C20.3495 57.7506 19.102 58.9114 19.3781 59.9536C21.0785 66.3466 17.8086 72.5645 10.5662 73.7925C8.234 74.1871 5.71781 74.18 3.28834 74.2402C7.60406 62.4839 11.3306 50.5418 16.1134 38.9553C19.0012 31.9571 21.9951 25.0031 24.943 18.0296C26.5603 14.2041 27.944 10.0264 29.8197 6.20613C29.9064 22.1879 30.7221 38.2033 30.9627 54.201C30.8389 54.7336 30.6602 55.1105 30.6301 55.1919ZM36.786 75.0329C33.9638 75.2452 33.5373 75.3674 33.486 74.2845C33.4365 73.2157 33.4966 71.7223 33.4931 70.6535C33.4789 65.5451 33.3268 55.33 33.3268 55.33L33.3126 54.5036C33.3126 54.5036 33.2294 49.3845 33.187 46.8241C32.9622 33.4258 32.5199 20.0115 32.4686 6.60778C43.7772 28.3739 50.8993 51.469 58.5168 74.7781C51.232 75.4399 44.0285 74.4879 36.786 75.0329ZM61.2666 74.6489C53.2332 50.0941 45.7555 25.7604 33.5232 2.94676C48.2929 4.00313 63.0998 3.60679 77.8942 3.92529C85.8993 26.8416 93.0763 50.0481 101.602 72.7822C88.2208 74.7251 74.7729 75.385 61.2666 74.6489Z" fill="#95BAA8"/>
<path d="M73.0057 24.6067C67.2478 25.5109 61.3431 24.2351 55.5534 24.5589C55.2756 24.5748 55.0615 24.6739 54.8739 24.8013C54.3997 25.0614 54.0759 25.5622 54.2741 26.2381C55.7693 31.3696 57.2574 36.5134 59.3118 41.4537C59.3277 41.4909 59.356 41.5121 59.3737 41.5458C59.5011 42.0589 59.8957 42.4765 60.5911 42.427C66.2746 42.0306 71.9563 42.8233 77.6399 42.427C78.1318 42.3934 78.4645 42.135 78.6732 41.8023C78.6786 41.7952 78.6803 41.7864 78.6856 41.7811C78.7511 41.6732 78.8112 41.5652 78.8449 41.4449C78.8891 41.3228 78.9033 41.1901 78.9104 41.0485C78.9104 41.0273 78.9121 41.0078 78.9121 40.9866C78.9121 40.9052 78.9334 40.8345 78.9192 40.7478C78.0593 35.5473 76.1429 30.5663 74.6371 25.5321C74.4159 24.789 73.7294 24.4917 73.0057 24.6067ZM61.4794 39.7339C59.8426 35.6305 58.5509 31.405 57.3123 27.1671C62.3482 27.1105 67.4017 27.8572 72.4164 27.3158C73.701 31.4634 75.1432 35.5968 76.0208 39.8506C71.1725 40.0116 66.3259 39.495 61.4794 39.7339Z" fill="#95BAA8"/>
</svg>
