<svg width="69" height="78" viewBox="0 0 69 78" fill="none" xmlns="http://www.w3.org/2000/svg">
<path d="M68.6959 46.2404C68.5362 43.9194 68.0332 42.2847 66.1092 40.8641C64.0441 39.3377 61.5453 39.7644 59.0997 39.8005C59.0052 38.3504 58.916 36.9017 58.8428 35.4556C58.8375 35.3418 58.8003 35.2495 58.767 35.1559C59.6372 34.6663 60.4103 34.0134 61.0277 33.1292C63.9017 29.0156 61.9524 23.7596 60.4968 19.5497C58.8375 14.7513 57.3818 10.7514 52.609 8.302C49.6644 6.79169 46.4976 6.33952 43.2802 6.28869C42.579 4.51216 41.8538 2.143 40.3117 0.947056C38.3065 -0.608742 34.6207 0.204619 32.3574 0.274182C30.2591 0.338394 27.6804 0.114991 26.077 1.77915C24.8675 3.03529 24.604 4.85596 24.5016 6.54821C24.4204 6.54152 24.3432 6.5482 24.2621 6.55891C17.4654 6.59369 10.9322 7.72142 8.42936 15.1472C7.00031 19.3866 4.48016 26.8244 6.45875 31.1427C7.17461 32.7065 8.29764 33.8034 9.63223 34.6034C9.53909 36.3224 9.418 38.0521 9.29026 39.7858C7.04821 39.7082 4.77422 39.4634 2.88878 40.8654C0.96474 42.2968 0.461776 43.9101 0.302105 46.2418C0.182351 47.9969 -0.64927 50.7206 1.09913 51.9018C1.28009 52.0235 1.489 52.1225 1.69391 52.2255C1.4065 55.0642 1.10846 57.9016 0.834354 60.7403C0.638757 62.7696 0.310083 64.8043 1.49431 66.5942C3.37976 69.4449 7.17995 69.4303 10.2603 69.338C11.1065 70.9299 12.3107 72.2783 14.0152 73.1559C14.2507 73.6763 14.6113 74.1819 15.2074 74.7076C19.943 78.8868 28.4947 77.9557 34.2149 77.8126C37.9113 77.7203 41.6103 77.4433 45.2748 76.9417C47.4676 76.642 50.4082 76.4521 52.0089 74.6528C52.2005 74.4361 52.3642 74.2073 52.5026 73.9692C55.4685 73.089 57.3619 71.5145 58.4929 69.3286C61.5799 69.4249 65.6129 69.5306 67.505 66.5916C68.6653 64.791 68.3592 62.7776 68.165 60.7376C67.8948 57.8949 67.5928 55.0548 67.3041 52.2148C67.5076 52.1145 67.7166 52.0182 67.8988 51.8991C69.6539 50.75 68.8143 47.9568 68.6959 46.2404ZM64.3941 42.0868C66.4112 43.0994 66.6188 44.9736 66.7506 47.0163C66.8716 48.9012 67.4425 50.1025 65.3335 50.647C63.5159 51.1152 61.685 51.2971 59.8208 51.3065C59.6651 48.136 59.4469 44.9642 59.2327 41.8004C60.8055 41.751 63.0036 41.3885 64.3941 42.0868ZM57.5122 17.0562C58.7603 20.2922 60.6125 24.462 60.5221 27.9347C60.3624 34.1017 55.0613 34.4562 50.331 34.697C50.331 34.3305 50.3324 33.9747 50.3457 33.6402C50.657 25.6285 50.7156 17.6568 50.2911 9.65444C53.3808 10.8343 55.9594 13.0296 57.5122 17.0562ZM25.6113 34.9445C25.6086 34.4883 25.61 34.0483 25.6259 33.6402C25.9519 25.2245 25.6778 16.8462 25.4623 8.43443C28.6863 8.49998 31.8611 8.78627 34.3799 8.67257C36.904 8.56019 39.5399 8.37826 42.116 8.39565C42.0348 17.2261 41.7407 26.09 41.9004 34.9164C36.4689 34.9352 31.0401 34.8268 25.6113 34.9445ZM23.2655 39.3711C22.1637 41.4246 19.9802 39.8661 19.311 38.1993C18.9916 37.4046 19.1912 35.8529 19.1765 34.9887C19.1247 32.1179 19.2231 29.2337 19.2471 26.3629C19.295 20.4915 19.3429 14.6215 19.3908 8.75013C20.7054 8.54679 22.0772 8.45183 23.4677 8.42909C23.6061 13.6128 23.815 18.7966 23.8363 23.9817C23.8469 26.6452 23.7924 29.3059 23.6939 31.9681C23.6274 33.7994 24.129 37.7618 23.2655 39.3711ZM43.895 34.9887C43.8431 32.0898 43.9429 29.1775 43.9668 26.2773C44.0147 20.3377 44.064 14.3981 44.1119 8.45852C45.5476 8.54146 46.9434 8.71938 48.2739 9.03509C48.5614 14.0276 48.6997 19.0214 48.6359 24.0218C48.6013 26.6719 48.5148 29.3193 48.4137 31.9667C48.3445 33.8008 48.8488 37.7591 47.9852 39.3698C46.8835 41.4232 44.7 39.8647 44.0294 38.1979C43.7113 37.4033 43.9109 35.8529 43.895 34.9887ZM33.6308 2.24067C35.4683 2.18448 36.6073 2.04939 38.3145 2.84267C40.0881 3.66672 40.5113 4.67669 41.1513 6.30338C38.8786 6.37161 36.602 6.56695 34.3786 6.66595C31.9369 6.77564 29.2265 6.63382 26.4935 6.5763C26.5374 5.57165 26.6279 4.43457 27.1787 3.62389C28.3071 1.96241 31.8425 2.29552 33.6308 2.24067ZM8.89374 21.8587C9.51779 18.9732 9.86773 15.7118 11.4857 13.1808C12.8576 11.0337 14.9506 9.82035 17.3869 9.15683C17.3031 17.6796 17.0303 26.2345 17.1793 34.7532C13.6546 34.2997 11.3886 33.8609 9.34082 30.4657C7.3742 27.2083 8.14062 25.3435 8.89374 21.8587ZM2.25276 47.0163C2.37783 45.0632 2.44969 43.5208 4.21805 42.3811C5.55263 41.5209 7.48998 41.6948 9.14789 41.7777C8.90573 44.9495 8.65956 48.1347 8.4959 51.3118C6.99765 51.2797 5.52468 51.1192 4.05038 50.7553C3.25336 50.5573 2.45235 50.5333 2.07845 49.732C1.82032 49.1822 2.21151 47.6478 2.25276 47.0163ZM7.00696 67.2323C3.69112 66.9207 2.73975 65.2792 2.70515 62.0085C2.67455 59.0213 3.24405 55.8923 3.60597 52.885C5.16409 53.2435 6.91648 53.3332 8.40674 53.3358C8.31227 55.792 8.27635 58.2427 8.35885 60.6761C8.4307 62.8285 8.69948 65.1869 9.41401 67.3287C8.61033 67.3287 7.80798 67.3086 7.00696 67.2323ZM34.4584 47.3668C38.055 47.5367 41.6649 47.6063 45.2641 47.6852C48.0983 47.7467 51.6111 46.8505 52.8126 50.1574C53.0202 50.7286 53.5484 52.9318 53.1279 53.5084C52.4467 54.4422 49.7536 53.978 48.8794 53.9766C45.2336 53.9673 41.589 53.9579 37.9432 53.9485C37.9432 53.8643 37.9419 53.7746 37.9432 53.693C37.9645 52.6335 38.1521 51.7961 37.1489 51.2088C35.5042 50.2483 32.2337 50.8195 30.4374 50.8998C30.2019 50.9105 30.0249 51.0015 29.8758 51.1178C29.8186 51.154 29.7681 51.1941 29.7202 51.2436C29.7188 51.2463 29.7175 51.2476 29.7148 51.2503C29.5605 51.4095 29.4474 51.6195 29.4394 51.9031C29.4208 52.5773 29.3929 53.2516 29.3676 53.9271C26.552 53.9244 23.7352 53.9418 20.9196 53.8883C19.6715 53.8643 17.9604 54.1465 16.8121 53.7211C13.9739 52.6696 14.28 50.0998 16.2799 48.5922C18.4793 46.9361 22.507 47.4752 25.2174 47.4056C28.2978 47.3253 31.3767 47.3254 34.4584 47.3668ZM35.8555 62.2452C35.8675 63.5643 35.4843 64.7602 34.7046 65.8344C32.2616 65.8598 31.1386 64.8886 31.3342 62.9208C31.2437 61.9376 31.2277 60.9449 31.2197 59.959C31.1998 57.5899 31.3209 55.222 31.4007 52.8542C32.4971 52.7914 33.6308 52.7325 34.6913 52.889C36.3731 53.1365 35.962 53.1125 35.9207 54.8194C35.8622 57.2889 36.0711 59.7811 35.8555 62.2452ZM33.3114 75.8206C28.4588 75.9009 19.3216 76.8293 16.4874 72.2596C15.0424 69.9319 15.886 66.72 15.9525 63.9829C16.0177 61.2646 15.9712 58.5517 15.8767 55.8361C17.5506 56.0127 19.4626 55.8642 20.9196 55.8923C23.7112 55.9458 26.5041 55.9297 29.297 55.9311C29.2491 57.2728 29.2145 58.6146 29.2265 59.9564C29.2425 61.8667 29.1148 64.304 29.981 66.0739C31.249 68.6664 34.3599 69.148 36.3119 67.0156C38.6405 64.4712 38.196 59.6848 38.0044 55.9498C41.1393 55.9578 44.2742 55.9658 47.4091 55.9739C48.2513 55.9765 49.369 56.1277 50.492 56.1879C50.3137 58.454 50.2419 60.7108 50.4122 62.985C50.5679 65.0772 51.7974 68.1821 51.2039 70.0951C49.1348 76.7691 38.8746 75.7297 33.3114 75.8206ZM53.1838 71.5666C53.269 70.4924 53.1572 69.3741 53.0601 68.3427C52.6702 64.2023 52.2018 60.2854 52.4932 56.1344C53.092 56.0448 53.6389 55.8762 54.074 55.5672C55.6281 54.4649 55.2276 52.0864 54.8963 50.3888C54.3441 47.5635 53.3275 46.1722 50.4175 45.7776C45.2295 45.0753 39.6903 45.6077 34.4571 45.3602C28.8619 45.284 23.0925 45.1181 17.5226 45.7308C14.8335 46.0264 13.636 46.908 12.9441 49.5835C12.3999 51.6904 11.6467 54.3672 13.8648 55.3639C14.0298 59.8935 13.93 64.3856 13.7424 68.9112C13.7185 69.4905 13.6825 70.0068 13.6599 70.4911C9.22239 66.732 10.3308 58.4407 10.6036 53.3211C10.9202 47.3882 11.2595 41.458 11.5802 35.5251C13.3778 36.1886 15.3631 36.5137 17.2193 36.7612C17.343 40.0748 17.9564 43.6238 22.3953 42.6272C25.0578 42.0292 25.5275 39.5009 25.6007 36.9498C31.0494 36.8321 36.4969 36.9404 41.9456 36.923C42.084 40.1885 42.7493 43.6078 47.1163 42.6272C49.864 42.0105 50.2738 39.3363 50.3257 36.705C52.44 36.6167 54.7952 36.5538 56.8749 35.9345C57.2035 42.2687 57.6972 48.5976 57.8861 54.9385C58.0671 60.9583 59.2327 68.7667 53.1838 71.5666ZM66.2981 62.0085C66.2635 65.2806 65.3122 66.9207 61.9963 67.2323C61.0915 67.318 60.1854 67.3327 59.2793 67.326C59.6279 66.114 59.8275 64.7722 59.902 63.3007C60.071 59.9858 60.039 56.6575 59.9113 53.3278C61.5812 53.3439 63.6103 53.2877 65.396 52.8757C65.7579 55.8869 66.3287 59.0199 66.2981 62.0085Z" fill="#95BAA8"/>
</svg>
