<svg width="76" height="78" viewBox="0 0 76 78" fill="none" xmlns="http://www.w3.org/2000/svg">
<path d="M73.6745 71.6594C71.7398 73.2471 69.6316 74.2957 67.4073 74.954C65.8692 72.8288 64.1731 70.9221 62.3438 69.0509C62.4073 68.9704 62.4739 68.8898 62.5374 68.8093C66.5848 64.8548 68.3569 56.5972 70.561 51.8419C71.1853 50.4943 69.184 49.3125 68.5551 50.6693C68.0439 51.7722 67.5746 52.9727 67.113 54.2134C67.0681 54.2087 67.0356 54.1886 66.9876 54.1886C63.1337 54.1994 59.3217 53.9051 55.5206 53.3212C55.8598 52.793 56.2006 52.2663 56.546 51.7536C57.3824 50.5098 55.3719 49.345 54.5401 50.5811C51.834 54.6022 49.1264 58.6248 46.4188 62.646C45.7884 63.5815 45.237 64.6395 44.3216 65.335C43.2078 66.1807 42.9259 66.0893 41.5799 66.0273C39.8218 65.9452 38.0668 65.8724 36.318 65.6618C34.8372 65.4837 34.8496 67.8087 36.318 67.9852C37.6455 68.1448 39.3695 68.4763 41.0563 68.5692C39.9023 69.6024 38.7577 70.6479 37.7245 71.8003C37.6889 71.8391 37.6811 71.884 37.6517 71.9243C36.5597 71.7275 35.4893 71.5603 34.4484 71.4394C33.011 71.2737 31.5674 71.1358 30.1222 71.0321C33.6073 59.057 37.0925 47.0835 40.5792 35.1084C41.1741 35.2355 41.7487 35.3563 42.2552 35.491C44.0427 35.9681 47.0771 36.978 48.829 35.8891C49.0954 35.7234 49.3232 35.5267 49.5307 35.3129C49.8359 35.8008 50.2247 36.2361 50.7033 36.5923C52.1702 37.6828 54.3186 37.7928 56.0735 37.9725C58.4342 38.2141 60.5965 38.0189 61.9859 36.8805C62.1842 37.1143 62.4088 37.3297 62.6954 37.4985C64.4519 38.5347 67.1456 38.8198 69.1344 38.9437C71.2317 39.0738 73.6806 39.08 74.8625 37.0261C75.7795 35.4306 75.7175 32.7277 75.4867 30.965C75.4805 30.9138 75.4527 30.8782 75.4418 30.8302C75.4403 30.7698 75.4573 30.7187 75.4449 30.6552C73.0611 17.1993 60.8846 5.08328 47.8656 1.14271C47.8114 1.11637 47.751 1.10089 47.6906 1.08385C47.6704 1.07766 47.6503 1.06991 47.6301 1.06372C35.7945 -2.42455 18.5344 3.00147 10.7322 12.4486C10.7183 12.4641 10.7167 12.4827 10.7043 12.4997C10.5463 12.5927 10.3992 12.7197 10.2877 12.9241C9.23747 14.8681 8.14388 17.0459 8.63645 19.326C9.10579 21.5008 10.7074 22.5061 12.5879 23.4153C14.4931 24.3354 17.0721 26.222 19.3104 25.9076C19.8293 25.8348 20.2754 25.6226 20.6704 25.3298C20.6983 25.9959 20.8299 26.6232 21.1552 27.1483C22.2705 28.9405 25.5744 29.6592 27.4006 30.4306C29.309 31.236 31.6897 32.7137 33.8227 31.8897C34.086 31.7875 34.3245 31.6589 34.5445 31.5133C34.6622 31.8618 34.814 32.2057 35.0448 32.534C35.0928 32.6022 35.1594 32.6533 35.2121 32.7168C35.209 32.7261 35.2028 32.7308 35.1997 32.7401C31.4806 45.4571 27.5184 58.1013 23.7947 70.8167C15.8004 70.8617 7.88057 72.1969 0.592682 75.7672C-0.750272 76.4256 0.426948 78.4299 1.76526 77.7732C15.8825 70.857 32.2969 72.9032 47.1716 75.8602C47.9771 76.0197 48.7748 76.1824 49.571 76.345C49.7197 76.4085 49.8715 76.4395 50.0279 76.4379C59.0321 78.2611 67.4693 79.7403 75.3164 73.2997C76.4734 72.3518 74.8207 70.7176 73.6745 71.6594ZM46.0688 33.8941C44.842 33.8228 43.6106 33.4541 42.4318 33.1335C41.3181 32.8299 39.8667 32.6301 38.8351 32.1329C36.6433 31.0749 36.5845 29.306 37.3094 27.3404C38.0234 27.5557 38.7329 27.7803 39.45 27.9801C42.4752 28.8243 45.5545 29.6328 48.6649 30.3361C48.6649 30.3516 48.6571 30.3609 48.6571 30.3763C48.6989 32.5077 48.4759 34.0335 46.0688 33.8941ZM49.0986 28.0637C46.0394 27.3636 43.0189 26.5628 40.0681 25.7387C39.2502 25.511 38.4386 25.2586 37.6269 25.0107C39.7614 17.7678 42.0678 10.0833 47.3498 4.53495C49.9536 12.193 49.746 20.0293 49.0986 28.0637ZM50.5964 7.38504C55.8164 14.2717 59.9103 21.1647 61.1046 30.0836C57.8518 29.7785 54.6005 29.2363 51.3833 28.5641C51.9796 21.3304 52.243 14.295 50.5964 7.38504ZM35.4119 24.3121C31.6123 23.0621 27.8963 21.5829 24.3151 19.831C28.6646 12.0924 36.0284 4.88656 45.0914 3.56375C39.9659 9.29957 37.5696 17.0119 35.4119 24.3121ZM56.6157 35.7017C53.7284 35.4492 49.9691 34.8761 51.2129 30.8813C54.5416 31.5613 57.9013 32.0988 61.2672 32.3931C61.2626 32.4411 61.2425 32.4767 61.244 32.5294C61.2518 32.7772 61.2223 32.9724 61.2053 33.1846C61.1867 33.3473 61.1758 33.5099 61.165 33.6741C60.753 35.8674 58.7811 35.8922 56.6157 35.7017ZM73.1602 34.1434C73.013 36.3894 71.4362 36.7348 69.483 36.6419C68.0254 36.5722 66.5926 36.2826 65.1877 35.8953C64.0073 35.57 63.5225 35.0294 63.4668 34.1403C63.5225 33.8073 63.5489 33.4402 63.5581 33.053C63.5891 32.8965 63.6247 32.7308 63.6681 32.5588C66.8621 32.7246 70.053 32.6471 73.2237 32.2645C73.2253 32.8934 73.202 33.5223 73.1602 34.1434ZM72.9139 29.986C69.785 30.3763 66.6205 30.4461 63.4482 30.2633C62.1935 20.3437 57.6055 12.7398 51.7365 5.09103C61.8078 9.74877 70.5115 19.4515 72.9139 29.986ZM40.4166 2.35865C32.5928 5.08638 26.2064 11.6494 22.2333 18.7932C19.1075 17.1435 16.1133 15.2476 13.271 13.1085C19.4359 6.49285 30.6844 2.14799 40.4166 2.35865ZM17.0659 22.9986C15.8299 22.6563 14.4884 21.7858 13.3438 21.2142C12.1123 20.5993 10.9738 19.896 10.8437 18.375C10.7415 17.1745 11.279 15.9942 11.8506 14.9177C14.7131 17.0583 17.7088 18.9744 20.833 20.6504C20.6533 21.2111 20.4628 21.8694 20.1159 22.3155C19.3708 23.2697 18.2524 23.327 17.0659 22.9986ZM30.8393 29.3602C29.436 29.0721 27.9598 28.1722 26.6525 27.6068C25.5992 27.1514 23.426 26.6309 23.0326 25.3685C22.7847 24.5724 23.1906 23.152 23.5437 22.015C27.1466 23.77 30.8812 25.2601 34.7056 26.5225C34.1789 28.705 33.4075 29.8869 30.8393 29.3602ZM37.2071 34.1403C37.565 34.2952 37.9352 34.4346 38.3193 34.5524C34.7923 46.6668 31.2669 58.7828 27.7399 70.8973C27.2287 70.8741 26.7191 70.8586 26.2079 70.8446C29.8062 58.5892 33.6135 46.3973 37.2071 34.1403ZM55.059 75.459C53.7362 75.2809 52.4056 75.0563 51.075 74.7991C51.0673 74.7868 51.0688 74.7744 51.0595 74.762C49.839 72.9714 48.5022 71.2799 47.1391 69.6055C50.6646 70.4713 54.7678 71.3109 58.0516 70.8803C56.9967 72.3533 55.993 73.8636 55.0652 75.4451C55.0605 75.4513 55.0605 75.4559 55.059 75.459ZM54.1745 55.451C58.1832 56.1155 62.209 56.4702 66.275 56.4966C65.152 59.5713 63.9624 62.6893 62.2369 65.0577C58.7842 69.796 51.9115 68.3338 46.3073 66.9784C49.2597 63.5598 51.7132 59.4117 54.1745 55.451ZM40.3237 72.4478C41.4436 71.3186 42.6394 70.2653 43.8212 69.2012C45.1534 70.8198 46.4885 72.4308 47.7417 74.1068C45.2246 73.5553 42.7338 72.9574 40.3237 72.4478ZM57.6179 75.7363C58.6433 74.0649 59.7415 72.4633 60.9094 70.9066C62.3438 72.3812 63.6975 73.8837 64.9398 75.5194C62.5838 75.9129 60.1241 75.9392 57.6179 75.7363Z" fill="#95BAA8"/>
<path d="M14.3885 53.0022C20.256 52.793 25.1213 48.6976 24.9184 42.7495C24.7217 36.9936 20.2854 33.2451 14.6348 33.2761C9.30327 33.3984 4.4581 37.655 4.34193 43.143C4.2273 48.6852 8.85718 53.2004 14.3885 53.0022ZM14.6364 35.5995C18.6652 35.5778 22.217 37.9942 22.5795 42.226C22.9853 46.9674 19.37 50.2481 14.7091 50.6229C10.6741 50.9482 6.9922 48.0733 6.72732 43.9484C6.43767 39.4379 10.1691 35.7018 14.6364 35.5995Z" fill="#95BAA8"/>
</svg>
