<svg width="1396" height="1866" viewBox="0 0 1396 1866" fill="none" xmlns="http://www.w3.org/2000/svg">
<path d="M-6.00031 1.0001C-6.00031 1.0001 156.966 227.411 306.5 274C467.739 324.237 616.243 125.232 776 180C885.809 217.645 846.864 395.281 947 454C1044.28 511.044 1237.84 535.366 1344.5 572C1536.33 637.888 1114.5 632 1217.5 716C1407.64 871.069 777.5 595.5 501 1080.5C463.557 1146.18 641 1080.5 597.5 1015C513.621 888.699 208 1195 121.5 1320.5C-56.4424 1578.67 553.186 1275.58 831.5 1420C971.729 1492.77 1051.5 1551 1017 1636.5C948.696 1805.78 594 1710.5 521.5 1865" stroke="#142B23" stroke-dasharray="10 10"/>
</svg>
