<svg width="21" height="19" viewBox="0 0 21 19" fill="none" xmlns="http://www.w3.org/2000/svg">
<path d="M15.2917 18.3649H5.70841C2.2105 18.3649 0.197998 16.3524 0.197998 12.8545V6.14616C0.197998 2.64824 2.2105 0.635742 5.70841 0.635742H15.2917C18.7897 0.635742 20.8022 2.64824 20.8022 6.14616V12.8545C20.8022 16.3524 18.7897 18.3649 15.2917 18.3649ZM5.70841 2.07324C2.96758 2.07324 1.6355 3.40533 1.6355 6.14616V12.8545C1.6355 15.5953 2.96758 16.9274 5.70841 16.9274H15.2917C18.0326 16.9274 19.3647 15.5953 19.3647 12.8545V6.14616C19.3647 3.40533 18.0326 2.07324 15.2917 2.07324H5.70841Z" fill="white"/>
<path d="M10.4998 10.3335C9.69483 10.3335 8.88025 10.0843 8.25733 9.5764L5.25774 7.18056C4.95108 6.9314 4.89358 6.48098 5.14275 6.17431C5.39191 5.86764 5.84233 5.81015 6.149 6.05931L9.14857 8.45515C9.87691 9.03973 11.1132 9.03973 11.8415 8.45515L14.8411 6.05931C15.1477 5.81015 15.6077 5.85806 15.8473 6.17431C16.0965 6.48098 16.0486 6.94098 15.7323 7.18056L12.7327 9.5764C12.1194 10.0843 11.3048 10.3335 10.4998 10.3335Z" fill="white"/>
</svg>
