<svg width="21" height="21" viewBox="0 0 21 21" fill="none" xmlns="http://www.w3.org/2000/svg">
<path d="M15.723 20.8024C14.6401 20.8024 13.4997 20.5437 12.3209 20.0453C11.1709 19.5566 10.0113 18.8857 8.8805 18.0712C7.75925 17.247 6.67633 16.327 5.65091 15.3207C4.63508 14.2953 3.71508 13.2124 2.9005 12.1007C2.07633 10.9507 1.41508 9.80074 0.945498 8.68908C0.447165 7.50074 0.197998 6.35074 0.197998 5.26783C0.197998 4.52033 0.332165 3.81116 0.590915 3.14991C0.859248 2.46949 1.2905 1.83699 1.87508 1.29074C2.613 0.562409 3.45633 0.198242 4.35716 0.198242C4.73091 0.198242 5.11425 0.284492 5.44008 0.437826C5.81383 0.610326 6.13008 0.869075 6.36008 1.21408L8.58341 4.34783C8.78466 4.62574 8.938 4.89408 9.04341 5.16241C9.168 5.44991 9.23508 5.73741 9.23508 6.01533C9.23508 6.37949 9.12966 6.73408 8.92841 7.06949C8.78466 7.32824 8.56425 7.60616 8.28633 7.88408L7.63467 8.56449C7.64425 8.59324 7.65383 8.61241 7.66341 8.63158C7.77841 8.83283 8.00841 9.17782 8.44925 9.69532C8.91883 10.232 9.35966 10.7207 9.8005 11.1712C10.3659 11.727 10.8355 12.1678 11.2763 12.532C11.8226 12.992 12.1772 13.222 12.388 13.3274L12.3688 13.3753L13.0684 12.6853C13.3655 12.3882 13.653 12.1678 13.9309 12.0241C14.458 11.6982 15.1288 11.6407 15.7997 11.9187C16.0488 12.0241 16.3172 12.1678 16.6047 12.3691L19.7863 14.6307C20.1409 14.8703 20.3997 15.177 20.553 15.5412C20.6967 15.9053 20.7638 16.2407 20.7638 16.5762C20.7638 17.0362 20.6584 17.4962 20.4572 17.9274C20.2559 18.3587 20.0067 18.7324 19.6905 19.0774C19.1442 19.6812 18.5501 20.1124 17.8601 20.3903C17.1988 20.6587 16.4801 20.8024 15.723 20.8024ZM4.35716 1.63574C3.83008 1.63574 3.34133 1.86574 2.87175 2.32574C2.43091 2.73783 2.12425 3.18824 1.93258 3.67699C1.73133 4.17533 1.6355 4.70241 1.6355 5.26783C1.6355 6.15908 1.84633 7.12699 2.268 8.12366C2.69925 9.13949 3.303 10.1937 4.06966 11.2478C4.83633 12.302 5.70841 13.3274 6.66675 14.2953C7.62508 15.2441 8.66008 16.1257 9.72383 16.902C10.7588 17.6591 11.8226 18.2724 12.8767 18.7132C14.5155 19.4128 16.0488 19.5757 17.3138 19.0487C17.8026 18.8474 18.2338 18.5407 18.6267 18.0999C18.8472 17.8603 19.0197 17.6016 19.1634 17.2949C19.2784 17.0553 19.3359 16.8062 19.3359 16.557C19.3359 16.4037 19.3072 16.2503 19.2305 16.0778C19.2017 16.0203 19.1442 15.9149 18.9622 15.7903L15.7805 13.5287C15.5888 13.3945 15.4163 13.2987 15.2534 13.2316C15.0426 13.1453 14.9563 13.0591 14.6305 13.2603C14.4388 13.3562 14.2663 13.4999 14.0747 13.6916L13.3463 14.4103C12.9726 14.7745 12.3976 14.8607 11.9567 14.6978L11.698 14.5828C11.3051 14.372 10.8451 14.0462 10.3372 13.6149C9.87716 13.222 9.37883 12.762 8.77508 12.1678C8.3055 11.6887 7.83591 11.1807 7.34716 10.6153C6.89675 10.0882 6.57091 9.63783 6.36966 9.26408L6.25466 8.97657C6.19716 8.75616 6.178 8.63158 6.178 8.49741C6.178 8.15241 6.30258 7.84574 6.54216 7.60616L7.26091 6.85866C7.45258 6.66699 7.59633 6.48491 7.69216 6.32199C7.76883 6.19741 7.79758 6.09199 7.79758 5.99616C7.79758 5.91949 7.76883 5.80449 7.72091 5.68949C7.65383 5.53616 7.54841 5.36366 7.41425 5.18158L5.19091 2.03824C5.09508 1.90408 4.98008 1.80824 4.83633 1.74116C4.683 1.67408 4.52008 1.63574 4.35716 1.63574ZM12.3688 13.3849L12.2155 14.0366L12.4742 13.3657C12.4263 13.3562 12.388 13.3657 12.3688 13.3849Z" fill="white"/>
</svg>
