<svg width="23" height="23" viewBox="0 0 23 23" fill="none" xmlns="http://www.w3.org/2000/svg">
<path d="M11.028 23H11.9857C17.1846 23 19.7846 23 21.3992 21.3854C23.0138 19.7708 23 17.1718 23 11.9857V11.0142C23 5.82912 23 3.22921 21.3992 1.6146C19.7984 4.62681e-06 17.1846 0 11.9857 0H11.028C5.8282 0 3.2292 4.62681e-06 1.61459 1.6146C-1.02818e-06 3.22921 0 5.82729 0 11.0142V11.9857C0 17.1718 -1.02818e-06 19.7708 1.61459 21.3854C3.2292 23 5.8282 23 11.028 23Z" fill="white"/>
<path d="M12.3427 16.5831C7.15665 16.5831 4.00933 12.9849 3.88696 7.00586H6.51357C6.59545 11.398 8.59369 13.2619 10.1255 13.6418V7.00586H12.6436V10.7953C14.121 10.6316 15.6667 8.9075 16.1873 7.00586H18.6631C18.2665 9.34542 16.5839 11.0695 15.3935 11.7807C16.5839 12.3557 18.4994 13.8608 19.2381 16.5831H16.5158C15.9408 14.7633 14.5314 13.3539 12.6436 13.1625V16.5831H12.3427Z" fill="#BC9C5F"/>
</svg>
