<svg width="23" height="23" viewBox="0 0 23 23" fill="none" xmlns="http://www.w3.org/2000/svg">
<g clip-path="url(#clip0_420_124)">
<path d="M9.09363 0.00385156L9.79225 0.000976562H13.2077L13.9073 0.00385156L14.7832 0.0134349L15.1982 0.0201432L15.5988 0.0306849L15.985 0.0441016L16.3568 0.0594349L16.7152 0.0795599L17.0602 0.103518L17.3909 0.132268L17.71 0.163893C19.3775 0.351727 20.5208 0.754227 21.3833 1.61673C22.2458 2.47923 22.6483 3.62156 22.8361 5.29002L22.8687 5.60914L22.8965 5.94073L22.9205 6.28573L22.9396 6.64319L22.9636 7.20669L22.9751 7.5996L22.9875 8.21677L22.9962 9.09364L23 10.0328L22.999 13.2078L22.9962 13.9074L22.9866 14.7833L22.9799 15.1982L22.9693 15.5988L22.9559 15.985L22.9406 16.3569L22.9205 16.7153L22.8965 17.0603L22.8677 17.3909L22.8361 17.71C22.6483 19.3775 22.2458 20.5208 21.3833 21.3833C20.5208 22.2458 19.3785 22.6483 17.71 22.8361L17.3909 22.8687L17.0593 22.8965L16.7143 22.9205L16.3568 22.9396L15.7933 22.9636L15.4004 22.9751L14.7832 22.9876L13.9064 22.9962L12.9672 23L9.79225 22.9991L9.09267 22.9962L8.21675 22.9866L7.80179 22.9799L7.40121 22.9694L7.015 22.9559L6.64317 22.9406L6.28475 22.9205L5.93975 22.8965L5.60913 22.8678L5.29 22.8361C3.6225 22.6483 2.47921 22.2458 1.61671 21.3833C0.754208 20.5208 0.351708 19.3785 0.163875 17.71L0.131292 17.3909L0.1035 17.0593L0.0795417 16.7143L0.060375 16.3569L0.0364167 15.7934L0.0249167 15.4004L0.0124583 14.7833L0.00383333 13.9064L0 12.9672L0.000958333 9.79227L0.00383333 9.09268L0.0134167 8.21677L0.020125 7.80181L0.0306667 7.40123L0.0440833 7.01502L0.0594167 6.64319L0.0795417 6.28477L0.1035 5.93977L0.13225 5.60914L0.163875 5.29002C0.351708 3.62252 0.754208 2.47923 1.61671 1.61673C2.47921 0.754227 3.62154 0.351727 5.29 0.163893L5.60913 0.13131L5.94071 0.103518L6.28571 0.0795599L6.64317 0.0603932L7.20667 0.0364349L7.59958 0.0249349L8.21675 0.0124766L9.09363 0.00385156ZM6.50708 6.99585H3.88125C4.00583 12.9759 6.99583 16.5696 12.2379 16.5696H12.535V13.1484C14.4612 13.34 15.9179 14.7488 16.5025 16.5696H19.2242C18.4767 13.8479 16.5121 12.3434 15.2854 11.7684C16.5121 11.0592 18.2371 9.33419 18.6492 6.99585H16.1767C15.64 8.89335 14.0492 10.6184 12.535 10.7813V6.99585H10.0625V13.6275C8.52917 13.2442 6.59333 11.385 6.50708 6.99585Z" fill="white"/>
</g>
<defs>
<clipPath id="clip0_420_124">
<rect width="23" height="23" fill="white"/>
</clipPath>
</defs>
</svg>
