<svg width="23" height="23" viewBox="0 0 23 23" fill="none" xmlns="http://www.w3.org/2000/svg">
<path d="M0 23L1.57366 17.0938C0.602599 15.365 0.0923488 13.4052 0.0932816 11.3955C0.0960801 5.11271 5.07265 0 11.1873 0C14.1546 0.000958333 16.9399 1.18833 19.035 3.34267C21.1292 5.497 22.2822 8.3605 22.2812 11.4061C22.2785 17.6899 17.3019 22.8026 11.1873 22.8026C9.33096 22.8016 7.50171 22.3234 5.88141 21.4149L0 23ZM6.15379 19.3516C7.71719 20.3052 9.20969 20.8763 11.1835 20.8773C16.2655 20.8773 20.4054 16.628 20.4082 11.4042C20.41 6.16975 16.2898 1.92625 11.191 1.92433C6.10528 1.92433 1.96824 6.17358 1.96638 11.3965C1.96544 13.5288 2.57364 15.1254 3.59507 16.7957L2.66319 20.2917L6.15379 19.3516ZM16.7758 14.1153C16.7067 13.9965 16.522 13.9255 16.2441 13.7827C15.967 13.64 14.6042 12.9509 14.3495 12.856C14.0958 12.7612 13.9111 12.7132 13.7255 12.9988C13.5408 13.2835 13.0091 13.9255 12.8477 14.1153C12.6863 14.305 12.524 14.329 12.2469 14.1862C11.9699 14.0434 11.0763 13.7435 10.0175 12.7727C9.19384 12.0175 8.63694 11.085 8.47557 10.7995C8.31419 10.5148 8.45878 10.3605 8.59683 10.2187C8.72183 10.0912 8.87388 9.88617 9.01287 9.71942C9.15373 9.55458 9.19943 9.43575 9.29271 9.24504C9.38506 9.05529 9.33936 8.88854 9.26939 8.74575C9.19943 8.60392 8.64534 7.20187 8.41493 6.63167C8.18919 6.07679 7.96065 6.15154 7.79088 6.14292L7.25918 6.13333C7.07448 6.13333 6.77411 6.20425 6.52039 6.48983C6.26666 6.77542 5.55026 7.4635 5.55026 8.86554C5.55026 10.2676 6.54371 11.6217 6.68176 11.8115C6.82075 12.0012 8.63601 14.8781 11.4167 16.1115C12.0781 16.4047 12.5949 16.5801 12.9969 16.7114C13.6611 16.928 14.2656 16.8973 14.7432 16.8245C15.2758 16.743 16.3831 16.1355 16.6144 15.4704C16.8457 14.8043 16.8457 14.2341 16.7758 14.1153Z" fill="white"/>
</svg>
