<svg width="50" height="50" viewBox="0 0 50 50" fill="none" xmlns="http://www.w3.org/2000/svg">
<rect width="50" height="50" rx="25" fill="#142B23"/>
<path d="M24.5549 4.70806C24.0183 4.77159 23.5041 4.97487 22.8621 5.3719C22.7375 5.44813 22.3127 5.68952 22.2999 5.68952C22.2935 5.68952 22.1817 5.74987 22.054 5.8261C21.9294 5.90233 21.725 6.02303 21.6004 6.0929C21.2363 6.30571 17.2213 8.61166 16.8092 8.84353C16.5824 8.97376 14.7299 10.0346 13.4554 10.7683C12.3279 11.4195 11.1269 12.1087 10.6286 12.3914C9.97064 12.7694 9.81413 12.8774 9.52347 13.1664C9.07948 13.6142 8.76966 14.1447 8.60676 14.7545C8.53968 15.0054 8.53968 15.0658 8.5301 17.556L8.51732 20.1001L7.5527 20.3415C6.61683 20.5766 5.71609 20.8211 5.17948 20.9831C4.85687 21.0816 4.75146 21.1832 4.75146 21.396C4.75146 21.4723 4.76744 21.5676 4.7866 21.6088C4.83451 21.7168 5.01019 21.8248 5.13476 21.8248C5.19225 21.8248 5.52125 21.7454 5.86621 21.647C6.76375 21.3929 8.44066 20.9641 8.88784 20.872C8.95811 20.8593 9.27432 20.7894 9.59054 20.7195C10.8458 20.4368 12.4205 20.1414 13.8802 19.9191C13.9888 19.9 14.1677 19.8746 14.2795 19.8556C14.7618 19.7793 15.867 19.6332 16.4259 19.5697C18.4925 19.341 20.0065 19.2235 22.2105 19.125C23.124 19.0837 26.8483 19.0837 27.7618 19.125C28.7616 19.1695 29.6176 19.2171 30.0808 19.2521C31.4351 19.3601 32.684 19.4871 33.722 19.6205C34.4567 19.7158 34.5397 19.7253 34.7601 19.7603C34.8847 19.7762 35.0859 19.8079 35.2073 19.8238C35.3319 19.8397 35.5171 19.8683 35.6225 19.8841C35.7279 19.9 35.9164 19.9286 36.0378 19.9477C36.3093 19.989 37.6508 20.2145 38.0501 20.2844C38.2098 20.3129 38.4142 20.3511 38.5068 20.3669C38.8805 20.4336 39.0275 20.459 39.4076 20.5353C39.628 20.5766 39.842 20.6179 39.8867 20.6274C40.468 20.7354 41.4422 20.9577 42.2823 21.1705C43.1543 21.3929 43.528 21.4913 44.1923 21.6819C44.7609 21.8439 44.8695 21.8534 45.0164 21.755C45.1474 21.666 45.1889 21.5771 45.1889 21.396C45.1889 21.2817 45.1697 21.2372 45.0867 21.1515C44.9909 21.053 44.9174 21.0244 44.2786 20.8465C43.2788 20.567 43.1287 20.5289 42.212 20.3002L41.3879 20.0938V17.6258C41.3879 15.9742 41.3751 15.1007 41.3528 14.9896C41.257 14.5195 41.0877 14.0907 40.8673 13.7413C40.7171 13.5063 40.698 13.484 40.3594 13.141C40.1454 12.9282 40.0304 12.8361 39.9985 12.8488C39.9697 12.8583 39.9538 12.8551 39.9633 12.8392C39.9729 12.8234 39.9633 12.798 39.941 12.7789C39.9058 12.7503 38.9189 12.1818 37.523 11.3813C37.2324 11.2162 36.6958 10.9081 36.3252 10.6953C35.9579 10.4825 35.4884 10.2125 35.2872 10.0981C35.0859 9.9838 34.8687 9.85675 34.808 9.82181C34.7474 9.78687 34.6739 9.74558 34.6483 9.73288C34.6228 9.72017 34.5302 9.66618 34.4407 9.61218C34.3545 9.55501 34.2012 9.46925 34.1053 9.41525C33.9265 9.31997 32.9107 8.73554 32.3965 8.43697C32.24 8.34486 32.0547 8.24004 31.9876 8.20193C31.9206 8.16381 31.7609 8.07488 31.6363 8.00183C31.5085 7.92877 31.3648 7.84619 31.3105 7.8176C31.2594 7.78902 31.1572 7.73184 31.0869 7.68738C31.0166 7.64291 30.8793 7.5635 30.7835 7.50951C30.6876 7.45551 30.2916 7.23 29.9051 7.00766C29.5186 6.78215 29.0586 6.51852 28.883 6.42006C28.7073 6.32159 28.3911 6.14055 28.1803 6.01667C27.0879 5.37825 26.4299 5.01616 26.2095 4.9304C25.7112 4.7303 25.0756 4.64454 24.5549 4.70806ZM25.609 5.59741C25.8677 5.66729 26.1967 5.81975 26.6088 6.06432C26.7525 6.15008 27.107 6.35653 27.3977 6.5217C27.6884 6.68686 28.2857 7.0299 28.7233 7.28399C29.164 7.53809 29.5857 7.77949 29.6655 7.82396C29.7454 7.86842 29.9306 7.97642 30.0808 8.06217C30.3682 8.23051 30.7675 8.4592 32.4763 9.43749C33.0641 9.77417 33.8498 10.2252 34.2171 10.438C34.5876 10.6508 35.1818 10.9938 35.5427 11.2003C35.9036 11.4068 36.4211 11.7053 36.6926 11.861C36.9641 12.0166 37.2963 12.2072 37.4272 12.2802C37.5582 12.3533 37.8265 12.5057 38.0181 12.6201C38.213 12.7344 38.5931 12.9536 38.8646 13.106C39.4778 13.4523 39.6248 13.5602 39.9122 13.8715C40.0751 14.0462 40.1837 14.2018 40.2827 14.4051C40.5447 14.9387 40.5383 14.8847 40.5511 16.8445C40.5574 18.1563 40.5511 18.5851 40.5223 18.5851C40.4456 18.5851 39.4714 18.0642 39.3692 17.9689C39.2638 17.8672 38.625 17.1939 38.2545 16.7905C37.6157 16.0981 36.9289 15.3929 36.9002 15.4025C36.8842 15.4088 36.8778 15.4025 36.8938 15.3898C36.9066 15.3771 36.8906 15.3358 36.8587 15.3008C36.8235 15.2627 36.7788 15.1611 36.7565 15.0753C36.6798 14.7736 36.5935 14.4718 36.5648 14.4083C36.5488 14.3734 36.5265 14.3098 36.5169 14.2654C36.4211 13.9192 36.0601 13.2934 35.8365 13.0838C35.5587 12.8234 35.5395 12.8202 34.9134 12.8297C34.4343 12.8392 34.3321 12.8329 34.1213 12.7757C33.7412 12.6709 33.3515 12.4517 33.0673 12.1786C32.997 12.1119 32.882 12.0102 32.8117 11.9499C32.7415 11.8927 32.569 11.7339 32.4284 11.6005C32.2879 11.4671 32.1314 11.3305 32.0771 11.2956C31.9493 11.213 31.6586 11.2098 31.5373 11.2892C31.4894 11.321 31.3871 11.3655 31.3073 11.3909C31.0773 11.4608 30.9368 11.4036 30.6717 11.14C30.397 10.8668 29.2918 9.68523 28.95 9.30408C28.5795 8.88482 28.4869 8.834 28.2921 8.94199C28.0046 9.09445 27.8161 9.19927 27.7427 9.25326C27.698 9.28503 27.65 9.31044 27.6373 9.31044C27.6245 9.31044 27.5287 9.36126 27.4201 9.42478C27.3115 9.48831 27.1805 9.56454 27.1262 9.5963C26.4203 9.99968 25.7975 10.438 25.395 10.8128L25.2289 10.9684L24.9542 10.7556C24.8041 10.6381 24.6412 10.5047 24.5965 10.4602C24.4623 10.3237 24.3537 10.2633 24.2515 10.2633C24.1429 10.2633 24.0215 10.3332 22.9387 11.0161C22.7375 11.1431 22.5682 11.2479 22.5586 11.2479C22.5522 11.2479 22.4404 11.3146 22.3127 11.3972C22.1849 11.483 22.0508 11.5656 22.0156 11.5846C21.9805 11.6037 21.7729 11.7307 21.5589 11.8641C21.3417 11.9975 21.1532 12.1055 21.1436 12.1024C21.1309 12.1024 20.8689 11.8133 20.5623 11.4639C19.7893 10.5809 19.3933 10.1394 19.2655 10.0156C19.1122 9.87263 19.01 9.87898 18.7129 10.0632C18.4255 10.2379 17.6621 10.7461 17.4768 10.8827C17.4065 10.9335 17.3139 11.0034 17.2692 11.032C16.9338 11.2734 16.7134 11.448 16.723 11.4766C16.7262 11.4925 16.7198 11.4989 16.7038 11.4893C16.6815 11.4766 15.9947 11.9944 15.9309 12.0706C15.9213 12.0801 15.8446 12.1468 15.7552 12.2167C15.4102 12.4899 14.8896 12.9726 14.1581 13.7064C13.4522 14.4083 13.1743 14.71 12.6537 15.3326C12.1618 15.9202 12.181 15.8948 11.82 16.4093C11.6827 16.6031 11.6316 16.7047 11.6539 16.727C11.6763 16.7492 11.7178 16.7238 11.7881 16.6444C13.1807 15.0975 14.535 13.7318 15.292 13.1156C15.407 13.0235 15.6082 12.8551 15.7392 12.744C15.8702 12.6328 16.0075 12.5184 16.0458 12.4867C16.4419 12.1595 17.9016 11.1336 18.2466 10.943C18.2817 10.924 18.4702 10.816 18.665 10.7016C19.1058 10.4444 19.1058 10.4444 19.1729 10.5174C19.2048 10.5523 19.2431 10.5714 19.2623 10.5587C19.2815 10.5492 19.2847 10.5555 19.2719 10.5746C19.2591 10.5968 19.4252 10.8414 19.6552 11.1431C19.8788 11.4385 20.2557 11.9308 20.492 12.2389C20.8051 12.6518 20.9392 12.8043 20.9871 12.8043C21.0223 12.8043 21.2203 12.6995 21.4215 12.5724C21.6259 12.4486 21.9102 12.2707 22.054 12.1849C22.4213 11.9626 22.6289 11.8324 23.3348 11.3845C24.0822 10.9113 24.1046 10.8986 24.2579 10.8986C24.3601 10.8986 24.3984 10.9208 24.5454 11.0796C24.638 11.1781 24.7147 11.2702 24.7147 11.2797C24.7147 11.2924 24.8233 11.3909 24.9574 11.502L25.197 11.699L25.5036 11.4036C25.6697 11.2384 25.8805 11.0383 25.9731 10.9526C26.0626 10.87 26.1328 10.7874 26.1264 10.7683C26.1233 10.7493 26.1328 10.7429 26.1456 10.7525C26.1616 10.762 26.3309 10.6413 26.5161 10.4856C26.7046 10.33 27.0016 10.1077 27.1773 9.99015C27.4041 9.83769 27.4839 9.76782 27.4552 9.74558C27.4265 9.72652 27.4296 9.72335 27.4712 9.73605C27.5031 9.74558 27.5894 9.71382 27.6788 9.663C27.9631 9.48831 28.3527 9.28503 28.3655 9.30091C28.3751 9.30726 28.3272 9.43113 28.2601 9.57407C28.0972 9.92663 27.9918 10.1617 27.8385 10.5015C27.7682 10.6572 27.698 10.8096 27.6852 10.8382C27.6692 10.8668 27.5063 11.2225 27.3179 11.6323C27.1326 12.042 26.9409 12.4549 26.8962 12.5502C26.8515 12.6455 26.7525 12.8615 26.679 13.0266C26.5225 13.3729 26.4235 13.5888 26.283 13.8906C25.8741 14.7767 25.7623 15.0308 25.7783 15.0499C25.7879 15.0594 26.2478 14.9578 26.7972 14.8212C27.3466 14.6878 28.0269 14.5226 28.308 14.4528C28.8478 14.3225 28.9149 14.3098 28.9468 14.3575C28.9564 14.3734 28.9213 14.4718 28.8702 14.5735C28.6785 14.9514 28.3464 15.7233 27.8832 16.854C27.7618 17.1494 27.5798 17.5877 27.4776 17.8259L27.2923 18.2547L26.1392 18.2452C25.5068 18.2389 24.9574 18.2293 24.9255 18.2261C24.868 18.2198 24.8648 18.1976 24.8712 17.9975C24.8744 17.8768 24.8839 17.7719 24.8871 17.7688C24.8903 17.7656 25.0277 17.791 25.1938 17.8228C25.7304 17.9339 26.5002 17.8958 26.9984 17.737L27.155 17.6862L26.9921 17.6449C26.6758 17.5655 26.3181 17.4067 26.1009 17.2542C25.8262 17.0605 25.6441 16.8762 25.708 16.8572C25.7336 16.8508 25.9636 16.8095 26.2255 16.7683C26.5002 16.727 26.695 16.6825 26.695 16.6603C26.695 16.6412 26.6343 16.6063 26.5609 16.584C26.2127 16.4824 25.9316 16.2791 25.6505 15.9361C25.4142 15.6439 25.4046 15.6661 25.807 15.5835L26.053 15.5295L25.8933 15.4469C25.6761 15.3326 25.4525 15.142 25.3056 14.9483C25.2417 14.8593 25.0692 14.5512 24.9255 14.259L24.6635 13.7318L24.507 14.0526C24.4176 14.2273 24.293 14.4559 24.226 14.5576C24.1621 14.6624 24.1142 14.7609 24.1269 14.7767C24.1365 14.7926 24.1333 14.8053 24.1174 14.8022C24.1046 14.7958 23.9832 14.9006 23.8522 15.0308C23.7181 15.1643 23.5328 15.3104 23.4306 15.3612C23.3284 15.4152 23.2454 15.4628 23.2454 15.4723C23.2454 15.4914 23.5935 15.5994 23.651 15.5994C23.7916 15.5994 23.6574 15.863 23.3699 16.1489C23.2006 16.3172 23.092 16.3935 22.8589 16.5046C22.5682 16.6412 22.5618 16.6444 22.6481 16.6761C22.6992 16.6952 22.7822 16.7111 22.8333 16.7111C22.9419 16.7111 23.5264 16.7746 23.5903 16.7937C23.6638 16.8159 23.453 17.0954 23.2294 17.2733C23.0665 17.4035 22.7024 17.5814 22.4884 17.6322L22.3191 17.6767L22.4373 17.7148C22.5011 17.737 22.7119 17.7878 22.9068 17.8259C23.2549 17.8958 23.6382 17.899 24.0599 17.8355C24.2387 17.8101 24.3026 17.8672 24.3218 18.0673L24.3377 18.2261L23.2741 18.2484C21.8048 18.277 19.7159 18.3881 18.764 18.4866C18.6458 18.4993 18.5436 18.5025 18.5341 18.4961C18.5245 18.4866 18.5181 18.2738 18.5181 18.0197V17.5591L18.6395 17.5814C18.7033 17.5909 18.8311 17.6131 18.9173 17.6322C19.6903 17.7815 20.639 17.7338 21.297 17.5115L21.4726 17.4511L21.3608 17.4289C20.9296 17.3368 20.4888 17.1558 20.1343 16.9207C19.8915 16.7587 19.5434 16.4443 19.5753 16.4125C19.5817 16.4062 19.8596 16.3553 20.1918 16.2982C20.524 16.2442 20.8083 16.1934 20.8242 16.1838C20.8721 16.1521 20.8498 16.0758 20.7923 16.0758C20.5879 16.0758 20.0193 15.7487 19.7478 15.4755C19.5402 15.2659 19.2655 14.9102 19.2911 14.8847C19.3038 14.872 19.521 14.818 19.8724 14.7386L20.0608 14.6973L19.9299 14.6433C19.7382 14.5608 19.4508 14.3575 19.2974 14.1955C19.0451 13.9287 18.9461 13.7699 18.6107 13.0933L18.2721 12.4104L18.0549 12.8392C17.5567 13.8207 17.2277 14.205 16.6272 14.5195C16.4547 14.6116 16.4164 14.6433 16.4611 14.6561C16.9977 14.8117 17.0839 14.8466 17.068 14.8847C17.0137 15.0277 16.7262 15.4025 16.5537 15.5581C16.3461 15.7487 16.0139 15.9456 15.7424 16.0409C15.4485 16.1425 15.5731 16.1806 16.4994 16.2696C16.7709 16.295 16.921 16.3236 16.921 16.3458C16.921 16.3935 16.7549 16.6285 16.6208 16.7714C16.4004 17.0065 15.9245 17.2637 15.4645 17.3971C15.3655 17.4257 15.292 17.4511 15.2984 17.4575C15.3208 17.4797 15.9277 17.629 16.1544 17.6671C16.2982 17.6925 16.5633 17.7052 16.8092 17.6989C17.0392 17.6925 17.2883 17.6862 17.3682 17.683C17.7036 17.6767 17.8122 17.8164 17.8377 18.2897L17.8569 18.5851H17.7451C17.5055 18.5851 15.177 18.8677 14.3338 18.998C14.2188 19.017 14.0655 19.0393 13.992 19.0488L13.8547 19.071L13.8738 18.9154C13.8866 18.8296 13.9026 18.7534 13.909 18.7439C13.9186 18.7343 14.1421 18.728 14.4073 18.728C14.781 18.728 14.9471 18.7121 15.1259 18.6676L15.3591 18.6041L15.1707 18.5374C14.8289 18.4135 14.5478 18.2103 14.4456 18.0102L14.4009 17.9244L14.781 17.8863C14.9918 17.8641 15.1643 17.8355 15.1643 17.8228C15.1643 17.8101 15.0812 17.7656 14.9822 17.7211C14.88 17.6767 14.7299 17.5782 14.6468 17.5083C14.4967 17.3749 14.2859 17.0732 14.3274 17.0478C14.3402 17.0414 14.4296 17.016 14.5286 16.9938L14.7075 16.9525L14.5286 16.8477C14.2539 16.6857 14.0208 16.4157 13.81 16.0123C13.7078 15.8186 13.6183 15.6629 13.6119 15.6724C13.6055 15.6788 13.5065 15.8694 13.3947 16.0949C13.1679 16.5459 12.9699 16.7841 12.708 16.9175L12.5611 16.9906L12.7208 17.0128C12.8102 17.0255 12.9124 17.0509 12.9539 17.0636L13.0274 17.0922L12.922 17.2383C12.8645 17.3209 12.7719 17.4257 12.7144 17.4734C12.6601 17.5242 12.6186 17.5718 12.6281 17.5814C12.6345 17.5909 12.6313 17.5941 12.6218 17.5877C12.6122 17.5782 12.5483 17.6068 12.4812 17.6481C12.4173 17.6894 12.3023 17.7402 12.2289 17.7624C12.0851 17.8037 12.0915 17.8482 12.2448 17.8704C12.296 17.8799 12.4014 17.899 12.4812 17.9181C12.5611 17.9339 12.6792 17.9562 12.7495 17.9657L12.8741 17.9848L12.7367 18.1245C12.5483 18.3151 12.0947 18.5406 11.7945 18.5914C11.7593 18.5978 11.8392 18.6295 11.9702 18.6613C12.3854 18.7661 13.0562 18.7661 13.4139 18.6613C13.4586 18.6486 13.4682 18.6803 13.4778 18.8836L13.4874 19.1218L13.2957 19.1536C13.1903 19.1727 12.938 19.2171 12.7367 19.2521C11.4208 19.4808 9.56499 19.8429 9.40209 19.9064C9.35418 19.9254 9.35098 19.7126 9.35098 17.6385C9.35098 15.0944 9.35737 15.0213 9.5586 14.5544C9.69595 14.2336 9.81413 14.0557 10.0824 13.7794C10.322 13.5285 10.453 13.4459 11.8264 12.6614C13.1392 11.9086 13.7269 11.5719 15.0046 10.835C15.5923 10.4984 16.2535 10.1172 16.4738 9.99333C17.6173 9.33902 18.9461 8.57037 19.0611 8.50049C19.1313 8.45603 19.1952 8.42109 19.2016 8.42109C19.2112 8.42109 19.4667 8.27498 19.7702 8.10029C20.0736 7.92242 20.4314 7.71596 20.5623 7.64291C20.8785 7.46822 23.1815 6.14372 23.552 5.92774C24.2387 5.52436 24.9159 5.41636 25.609 5.59741ZM29.2152 10.3014C29.5793 10.5968 29.6112 10.7747 29.3717 11.1336C29.1545 11.4544 28.9245 11.7053 28.1611 12.4613C27.7586 12.8583 27.4296 13.1982 27.4296 13.2172C27.4296 13.2553 27.3434 13.2585 27.321 13.2204C27.2987 13.1886 27.3434 13.0806 27.567 12.6137C27.6437 12.4486 27.9439 11.8197 28.2282 11.2162C28.5125 10.6127 28.7584 10.095 28.7776 10.0632C28.8063 10.0092 28.8127 10.0092 28.9021 10.0664C28.9564 10.0981 29.097 10.2061 29.2152 10.3014ZM32.1761 12.0452C32.3837 12.2389 32.6169 12.4486 32.6903 12.5121L32.8213 12.6233L32.5498 13.0203C32.208 13.5221 31.4862 14.4369 30.8953 15.123C30.7515 15.2881 30.3714 15.7328 30.052 16.1076C29.7294 16.4824 29.4324 16.8286 29.3908 16.8762C29.3142 16.9652 29.2375 16.9906 29.2056 16.9398C29.196 16.9239 29.3365 16.619 29.5154 16.2632C29.6943 15.9075 29.9083 15.4723 29.9913 15.2977C30.1383 14.9832 30.3235 14.5925 30.5663 14.0748C30.6365 13.9255 30.7356 13.7191 30.7835 13.6142C31.2051 12.7058 31.7257 11.6926 31.7704 11.6926C31.7832 11.6926 31.9653 11.8514 32.1761 12.0452Z" fill="#EFE5D9"/>
<path d="M22.7373 20.4496L22.437 20.4623L22.4562 21.0087C22.469 21.3104 22.4785 22.8445 22.4785 24.4199V27.2881H23.1493H23.8201V25.8334C23.8201 25.0361 23.8105 23.4925 23.7977 22.403L23.7785 20.4274L23.408 20.4338C23.2036 20.4369 22.9034 20.4465 22.7373 20.4496Z" fill="#EFE5D9"/>
<path d="M24.6509 23.8577V27.2881H25.3248H25.9988L25.9892 25.8302L25.9764 24.3755L26.0723 24.5152C26.3533 24.9218 26.8676 25.6523 27.4202 26.421L28.0398 27.2881H29.0428H30.0489L29.6401 26.7767C29.4165 26.494 29.1801 26.1955 29.1162 26.1097C28.3497 25.1155 27.5288 24.0896 27.2413 23.7656L27.1774 23.6926L27.3563 23.4957C27.4521 23.3908 27.6949 23.124 27.8897 22.908C28.0845 22.6921 28.5541 22.1712 28.931 21.7519C29.3079 21.3358 29.688 20.9134 29.7742 20.8181C29.8605 20.726 29.9244 20.6402 29.9148 20.6339C29.9052 20.6243 28.9182 20.5513 28.2379 20.51L28.0111 20.4973L27.8578 20.691C27.2349 21.4883 26.5737 22.3522 26.3182 22.7143C26.1489 22.9493 26.0052 23.1526 25.9956 23.1653C25.986 23.178 25.9828 22.565 25.986 21.8091L25.9988 20.4274H25.3248H24.6509V23.8577Z" fill="#EFE5D9"/>
<path d="M19.869 20.5544C19.5848 20.6973 19.5081 20.8497 19.0737 22.0885C18.8885 22.6157 18.6297 23.3463 18.502 23.7147C18.3742 24.08 18.2113 24.5501 18.1474 24.7565C18.0037 25.1917 18.042 25.2139 17.7961 24.5405C17.4192 23.4956 16.5695 21.4246 16.4386 21.2309C16.1511 20.818 15.6081 20.872 15.3206 21.3484C15.2248 21.5072 15.1609 21.7137 15.0811 22.1234C15.0364 22.3521 14.9437 22.8317 14.8767 23.1906C14.6211 24.512 14.1708 26.8338 14.126 27.0498C14.1005 27.1705 14.0781 27.2816 14.0781 27.2943C14.0781 27.3102 14.372 27.3198 14.7265 27.3198H15.3781L15.4803 26.7226C15.6975 25.4998 15.8636 24.4961 15.9307 24.0482C15.9658 23.7941 16.0042 23.5527 16.0169 23.5083L16.0329 23.4289L16.0649 23.5241C16.0904 23.5972 17.0742 26.2398 17.2467 26.7004C17.4383 27.2118 17.6651 27.415 18.0356 27.415C18.3295 27.4119 18.5339 27.2594 18.6776 26.9227C18.7735 26.7004 19.5273 24.4389 19.7349 23.7528C19.8275 23.4447 19.9138 23.2002 19.9233 23.2129C19.9361 23.2288 19.9776 23.4447 20.016 23.6988C20.0575 23.9529 20.1437 24.4675 20.2108 24.8423C20.2779 25.2171 20.3993 25.8968 20.4823 26.351C20.5622 26.8052 20.6356 27.2022 20.6452 27.2308C20.6612 27.2816 20.7219 27.288 21.316 27.288C21.7472 27.288 21.9676 27.2753 21.9676 27.2562C21.9676 27.2372 21.9484 27.1196 21.9229 26.9926C21.8973 26.8655 21.8462 26.6051 21.8111 26.4145C21.7759 26.2208 21.6098 25.3282 21.4405 24.4294C21.2745 23.5305 21.1211 22.7301 21.1052 22.6507C21.0892 22.5713 21.0157 22.1997 20.9455 21.8249C20.7953 21.0403 20.6867 20.7545 20.4823 20.5988C20.3194 20.4781 20.0607 20.4591 19.869 20.5544Z" fill="#EFE5D9"/>
<path d="M33.412 21.0595C33.3098 21.1198 33.198 21.2214 33.1213 21.3326C32.9648 21.5486 31.537 24.385 30.7513 26.0462C30.4351 26.7163 30.1763 27.269 30.1827 27.2722C30.1891 27.2754 30.5405 27.2881 30.9621 27.2976L31.7319 27.3167L31.8533 27.0562C32.0385 26.6623 33.3673 23.9879 33.5972 23.5592L33.7953 23.178L33.856 23.3051C33.8879 23.3718 34.0636 23.7656 34.2456 24.1753C34.4277 24.5851 34.6641 25.1123 34.7727 25.3442L34.9643 25.7666L34.6864 25.7476C34.2265 25.7126 33.198 25.6777 33.1533 25.6936C33.0862 25.7158 32.3068 27.2881 32.3547 27.3039C32.3771 27.3135 33.4982 27.3167 34.8429 27.3135L37.2864 27.3039L36.8425 26.3987C36.2483 25.1886 35.7533 24.1372 35.2326 22.9843C34.4948 21.3421 34.4565 21.2786 34.1658 21.0944C34.038 21.0086 33.9646 20.9864 33.7921 20.9769C33.5972 20.9642 33.5621 20.9737 33.412 21.0595Z" fill="#EFE5D9"/>
<path d="M38.2351 21.8599C38.1137 21.8948 37.9316 22.0981 37.8773 22.2601C37.8294 22.403 37.7847 24.1341 37.7815 26.0557L37.7783 27.3199H38.3628H38.9506L38.9697 26.9133C38.9825 26.691 38.9921 25.9954 38.9921 25.3665L38.9953 24.223L39.0815 24.331C39.6597 25.0679 40.6626 26.2114 41.3014 26.8625C41.7742 27.3484 41.9211 27.4342 42.2086 27.4056C42.5184 27.3739 42.7452 27.1896 42.825 26.9101C42.8442 26.8402 42.857 26.0811 42.857 24.9313V23.0669L42.627 22.997C42.4992 22.9589 42.2309 22.8827 42.0361 22.8255L41.6751 22.7207L41.6687 23.8387C41.6656 24.4517 41.6624 25.0584 41.6624 25.1854C41.6656 25.4109 41.6624 25.4141 41.6017 25.3601C41.3238 25.1124 39.9056 23.3781 39.1901 22.4094C38.9186 22.0409 38.7589 21.9012 38.5545 21.8535C38.4108 21.8218 38.3692 21.8218 38.2351 21.8599Z" fill="#EFE5D9"/>
<path d="M10.1335 22.1075C9.83642 22.2505 9.62881 22.495 9.35092 23.0318C8.72487 24.2547 7.88163 25.684 7.1406 26.7925C6.96492 27.0529 6.8148 27.2848 6.80521 27.3102C6.78924 27.3515 6.89145 27.3547 7.55583 27.3451C8.28089 27.3356 8.3288 27.3324 8.37352 27.2721C8.55878 27.0243 9.41161 25.5537 9.92586 24.604C10.1207 24.2356 10.2932 23.9275 10.306 23.9148C10.3155 23.9021 10.389 23.9942 10.4657 24.1213C10.7084 24.5183 11.4271 25.7348 11.475 25.8269L11.5197 25.9127L11.2259 25.9317C11.063 25.9444 10.6541 25.9698 10.3155 25.9921L9.70227 26.0302L9.60006 26.2049C9.54576 26.3033 9.37328 26.5892 9.21996 26.8401C9.06345 27.091 8.93569 27.3039 8.93569 27.3166C8.93569 27.3261 10.0504 27.3324 11.4111 27.3261C12.7718 27.3229 13.8866 27.3134 13.8866 27.3039C13.8866 27.2816 13.449 26.424 13.2318 26.0175C12.4077 24.4897 11.3057 22.603 11.0374 22.2632C10.833 22.0059 10.4784 21.9424 10.1335 22.1075Z" fill="#EFE5D9"/>
<path d="M5.48603 28.3394C5.16981 28.3743 4.88873 28.5808 4.75458 28.8761C4.69069 29.0159 4.6875 29.0763 4.6875 31.1027C4.6875 32.8401 4.69389 33.2117 4.73541 33.3419C4.78971 33.5293 5.00372 33.7612 5.22411 33.8692L5.37423 33.9423H6.94254H8.51404L8.53001 34.4663C8.54918 35.0666 8.60667 35.343 8.80151 35.7877C8.9708 36.1847 9.1912 36.5023 9.5138 36.8199C9.83641 37.1407 9.97375 37.236 10.7403 37.6743C11.0566 37.8522 11.6187 38.1762 11.986 38.389C12.3566 38.6018 12.7654 38.8368 12.8964 38.9099C13.0273 38.9861 13.9696 39.5261 14.9885 40.1105C16.0074 40.6949 17.1286 41.3397 17.4799 41.5398C17.8313 41.7431 18.3838 42.0607 18.7096 42.2481C19.0354 42.4355 19.7318 42.8357 20.2588 43.1375C21.2905 43.7283 21.6929 43.9601 22.0539 44.1761C22.1816 44.2523 22.2902 44.3127 22.2998 44.3127C22.3062 44.3127 22.4947 44.4207 22.7214 44.5509C22.9482 44.6811 23.1527 44.7828 23.1718 44.7732C23.1942 44.7669 23.2101 44.7764 23.2038 44.7955C23.2006 44.8177 23.3187 44.8939 23.4689 44.9702C24.3568 45.4085 25.4332 45.4275 26.3436 45.0178C26.4586 44.967 26.6981 44.8368 26.8802 44.7288C27.059 44.624 27.2124 44.535 27.2188 44.535C27.2251 44.535 27.3944 44.4397 27.5925 44.3254C27.7937 44.2079 28.0939 44.0332 28.26 43.9379C28.4261 43.8394 28.6561 43.7092 28.7711 43.6457C28.8861 43.5821 29.346 43.3185 29.7932 43.0581C30.2404 42.8008 30.6876 42.5435 30.7834 42.4927C30.8792 42.4387 30.9942 42.372 31.0389 42.3402C31.0836 42.3117 31.1858 42.2513 31.2625 42.2068C31.4637 42.0988 32.8755 41.2889 33.69 40.8188C33.8913 40.7013 34.15 40.5552 34.265 40.4917C34.3799 40.425 34.5301 40.3392 34.6003 40.2947C34.6706 40.2503 34.7473 40.2058 34.7728 40.1931C34.7984 40.1836 35.0347 40.047 35.2999 39.8977C37.0822 38.875 37.8807 38.4176 38.034 38.3286C38.1298 38.2683 38.5546 38.0269 38.9763 37.7855C39.9537 37.2265 40.0399 37.1693 40.3561 36.8707C40.7554 36.4896 41.0397 36.0481 41.2122 35.5336C41.3463 35.1333 41.3878 34.8729 41.3878 34.4028V33.9613L42.9945 33.9518C44.32 33.9454 44.6139 33.9327 44.6937 33.8946C45.0227 33.7358 45.2144 33.5103 45.2846 33.1927C45.3102 33.0688 45.3166 32.4748 45.3102 31.036L45.3006 29.0508L45.2271 28.8889C45.1441 28.7078 44.895 28.4442 44.8407 28.4791C44.8215 28.4886 44.8087 28.4823 44.8119 28.4632C44.8439 28.333 45.5593 28.3362 25.117 28.3267C14.4168 28.3235 5.58185 28.3298 5.48603 28.3394ZM10.8521 29.5908C11.0438 29.6575 11.2769 29.8322 11.3951 29.9942C11.5005 30.1371 11.5037 30.1784 11.4079 30.2261C11.3728 30.2419 11.2929 30.2896 11.2322 30.3277C11.0981 30.4135 11.0438 30.4198 11.0438 30.3531C11.0438 30.2578 10.7946 30.0291 10.6445 29.9878C10.3794 29.9148 10.1079 30.0005 10.0057 30.1911C9.9482 30.2959 9.9482 30.315 9.98972 30.3944C10.0376 30.4833 10.3251 30.6421 10.5742 30.7184C11.2322 30.9248 11.5932 31.3219 11.4941 31.7252C11.4175 32.0302 11.2674 32.208 10.948 32.37C10.8266 32.4335 10.7563 32.4462 10.4848 32.4431C10.1303 32.4431 9.96417 32.3922 9.72461 32.2049C9.60324 32.1096 9.41478 31.8809 9.41478 31.8269C9.41478 31.8142 9.49783 31.757 9.60004 31.6998C9.69906 31.6427 9.79169 31.5823 9.80446 31.5632C9.81724 31.5442 9.83641 31.5569 9.84918 31.5918C9.93542 31.8237 10.2069 32.0206 10.4433 32.0206C10.7148 32.0206 10.9352 31.8682 10.9703 31.6585C11.0086 31.4267 10.9032 31.3346 10.389 31.1503C9.97695 31.0011 9.84599 30.928 9.6767 30.7692C9.42756 30.5341 9.41478 30.207 9.64156 29.8767C9.72781 29.7528 9.98333 29.5908 10.1654 29.5463C10.3315 29.505 10.6701 29.5273 10.8521 29.5908ZM23.2133 29.613C23.5839 29.7814 23.8522 30.1403 23.9448 30.585C24.0278 30.9852 23.9512 31.5791 23.7755 31.8777C23.6733 32.0492 23.4497 32.2493 23.2389 32.3573C23.0856 32.4399 23.0377 32.4462 22.7342 32.4462C22.4212 32.4462 22.3861 32.4399 22.204 32.3478C21.7281 32.1032 21.4885 31.6522 21.4885 30.9947C21.4885 30.2451 21.8526 29.6893 22.4372 29.5432C22.6544 29.4892 23.0185 29.5241 23.2133 29.613ZM28.5507 29.559C28.7519 29.6099 28.934 29.702 29.0713 29.8258C29.1959 29.9402 29.3269 30.1466 29.2917 30.1816C29.2758 30.1975 29.1799 30.2578 29.0809 30.3182L28.8957 30.4293L28.8637 30.3436C28.7839 30.1371 28.5124 29.9561 28.276 29.9561C28.0173 29.9561 27.7809 30.1371 27.7809 30.334C27.7809 30.4103 27.9662 30.5691 28.0269 30.5469C28.0524 30.5373 28.0652 30.5405 28.0556 30.5564C28.0396 30.5786 28.4261 30.7501 28.4932 30.7501C28.5667 30.7501 28.9979 30.9915 29.1033 31.0932C29.2598 31.2424 29.3141 31.3695 29.3141 31.5855C29.3141 31.9349 29.1544 32.1763 28.8094 32.3446C28.6114 32.4431 28.5763 32.4494 28.292 32.4462C27.9566 32.4431 27.7394 32.37 27.5286 32.1921C27.42 32.1032 27.2379 31.8745 27.2379 31.8269C27.2379 31.8142 27.321 31.757 27.4232 31.6998C27.5222 31.6427 27.6148 31.5823 27.6244 31.5664C27.634 31.5537 27.6659 31.5887 27.6947 31.6458C27.8001 31.865 28.046 32.0206 28.2888 32.0206C28.4581 32.0206 28.5475 31.9825 28.6849 31.8523C28.7839 31.7634 28.803 31.7221 28.803 31.6204C28.7998 31.5474 28.7775 31.468 28.7392 31.4235C28.6657 31.3346 28.3942 31.2012 28.0907 31.0995C27.5158 30.9121 27.2603 30.6326 27.3146 30.2515C27.388 29.7242 27.9566 29.4034 28.5507 29.559ZM13.2509 29.613C13.4202 29.6607 13.5991 29.8227 13.6949 30.0069C13.7556 30.1276 13.7779 30.2229 13.7843 30.4389C13.8003 30.7882 13.7364 31.0233 13.5767 31.198C13.3851 31.4076 13.318 31.4298 12.8325 31.4489L12.4013 31.4648L12.3917 31.9317L12.3821 32.4018H12.1457H11.9062V30.9883V29.5749H12.5163C12.89 29.5749 13.1774 29.5908 13.2509 29.613ZM14.717 30.982C14.717 31.757 14.7106 32.3986 14.7042 32.405C14.6978 32.4113 14.5829 32.4145 14.4487 32.4081L14.2059 32.3954V30.9852V29.5749H14.4615H14.717V30.982ZM16.7133 29.6607C16.988 29.8068 17.119 30.045 17.1381 30.4389C17.1605 30.8645 17.0232 31.1885 16.7612 31.3504L16.675 31.4013L16.9082 31.8777C17.0391 32.1381 17.1445 32.3637 17.1445 32.3764C17.1445 32.3891 17.0295 32.4018 16.889 32.4018H16.6335L16.4003 31.9317L16.1671 31.4648H15.9595H15.7551V31.9349V32.4018H15.5091H15.26V30.9852V29.5717L15.9244 29.5813C16.5281 29.5908 16.5951 29.5972 16.7133 29.6607ZM18.0644 30.9947L18.0708 32.4018H17.8153H17.5598V30.9883V29.5717L17.8089 29.5813L18.0549 29.5908L18.0644 30.9947ZM20.4856 29.8195V30.0514H20.0767H19.6679V31.2266V32.4018H19.4123H19.1568V31.2266V30.0514H18.7576H18.3583V29.8131V29.5749L19.4219 29.5813L20.4824 29.5908L20.4856 29.8195ZM26.104 29.8195L26.1072 30.0514H25.5227H24.9382V30.369V30.6866H25.4013H25.8645V30.9248V31.163H25.4013H24.9382V31.7824V32.4018H24.6826H24.4271V30.9883V29.5749L25.264 29.5813L26.104 29.5908V29.8195ZM30.1765 30.9883V32.4018H29.921H29.6654V30.9883V29.5749H29.921H30.1765V30.9883ZM31.9492 29.6512C32.1441 29.7401 32.3325 29.9402 32.3772 30.1054C32.4475 30.3531 32.3964 30.6739 32.2654 30.8168C32.2143 30.874 32.2143 30.8804 32.2942 30.9534C32.4539 31.0995 32.5242 31.2806 32.5242 31.5601C32.5242 31.7792 32.5114 31.8332 32.4379 31.9635C32.3868 32.0429 32.2942 32.154 32.2303 32.2112C32.0355 32.3668 31.863 32.4018 31.2561 32.4018H30.7195V31.0106C30.7195 30.2451 30.7291 29.6067 30.7419 29.5972C30.7514 29.5845 30.9942 29.5749 31.2753 29.5749C31.748 29.5749 31.8023 29.5813 31.9492 29.6512ZM34.7185 29.8131L34.7281 30.0514H34.1148H33.4984V30.4166V30.7819H33.9903H34.4822L34.479 30.9915L34.4726 31.2012L33.9935 31.2043L33.5143 31.2107V31.5601V31.9095L34.1053 31.9126L34.6962 31.9158L34.7057 32.1604L34.7153 32.4018H33.8497H32.9873V30.9883V29.5749H33.8465H34.7057L34.7185 29.8131ZM36.6797 29.6607C36.9544 29.8068 37.1077 30.1117 37.1077 30.5087C37.1077 30.8931 36.964 31.2043 36.7212 31.3504L36.635 31.4044L36.8714 31.8904C37.0023 32.1572 37.1077 32.3827 37.1077 32.3891C37.1077 32.3986 36.9895 32.4018 36.8458 32.3954L36.5839 32.3859L36.3507 31.9158L36.1175 31.4457L35.9163 31.4553L35.7183 31.4648L35.7087 31.9317L35.6991 32.4018H35.4628H35.2232V30.9852V29.5717L35.8876 29.5813C36.4976 29.5908 36.5583 29.5972 36.6797 29.6607ZM38.0085 30.9883L38.018 32.4018H37.7625H37.507L37.5166 30.9883L37.523 29.5749H37.7625H38.0021L38.0085 30.9883ZM39.9185 29.8989C39.9728 30.0799 40.0623 30.3626 40.1134 30.5278C40.1645 30.693 40.3082 31.1567 40.4296 31.5601C40.5542 31.9603 40.666 32.316 40.6755 32.3446C40.6915 32.3954 40.666 32.4018 40.4392 32.4018H40.1868L40.1134 32.154C40.075 32.0206 40.0239 31.8523 40.0016 31.7824L39.9601 31.6554L39.4937 31.6458C38.9507 31.6363 39.0274 31.5823 38.8741 32.0842L38.7814 32.3859L38.5163 32.3954C38.2736 32.405 38.2576 32.4018 38.2831 32.3478C38.3087 32.3001 38.5195 31.6236 38.7687 30.7978C38.8325 30.5786 39.1136 29.6734 39.136 29.613C39.1456 29.5876 39.2446 29.5749 39.4841 29.5749H39.8163L39.9185 29.8989ZM40.5574 34.3456C40.5542 34.5616 40.535 34.8284 40.5094 34.9428C40.4871 35.0539 40.4743 35.1588 40.4807 35.1715C40.4903 35.1842 40.4807 35.1969 40.4647 35.1969C40.4456 35.1969 40.4296 35.2223 40.4296 35.2509C40.4296 35.2826 40.3625 35.4414 40.2827 35.6003C40.1773 35.8131 40.0719 35.9655 39.909 36.137C39.6183 36.4451 39.4746 36.5499 38.8645 36.8962C38.593 37.0486 38.2129 37.2678 38.018 37.3821C37.8264 37.4965 37.5581 37.6489 37.4271 37.722C37.1397 37.8808 35.862 38.6145 35.351 38.9131C35.1497 39.0306 34.8335 39.2116 34.6483 39.3165C34.463 39.4213 34.0318 39.669 33.69 39.8659C33.3483 40.0629 32.7797 40.39 32.4283 40.5901C32.077 40.7902 31.518 41.111 31.1826 41.3048C30.8505 41.4985 30.3905 41.7622 30.1605 41.8924C29.691 42.1592 28.5922 42.7913 27.717 43.2963C26.0401 44.265 25.9475 44.3127 25.5834 44.4111C25.2129 44.5128 24.6667 44.5064 24.2898 44.3953C24.0183 44.3159 23.734 44.1888 23.5008 44.0427C23.4401 44.0046 23.3092 43.9315 23.2133 43.8775C23.0504 43.7886 22.3094 43.363 21.233 42.7404C20.9966 42.6039 20.6932 42.4323 20.5622 42.3593C20.4313 42.2831 20.0735 42.0798 19.7701 41.9019C19.4666 41.7272 19.2079 41.5811 19.1983 41.5811C19.1888 41.5811 19.144 41.5557 19.0993 41.5208C19.0514 41.489 18.5308 41.1873 17.9431 40.8506C17.3553 40.5139 16.6431 40.1073 16.362 39.9454C16.0809 39.7865 15.6082 39.5134 15.3079 39.3419C15.0109 39.1703 14.5413 38.9035 14.2698 38.7447C13.9983 38.5859 13.5959 38.3541 13.3755 38.2302C13.1551 38.1063 12.7526 37.8744 12.4811 37.7156C12.2096 37.56 11.9222 37.3948 11.8423 37.3504C11.4143 37.1121 10.5231 36.5912 10.4018 36.5087C10.2293 36.388 9.90987 36.0576 9.76614 35.8512C9.49464 35.4541 9.3509 34.9174 9.3509 34.3043V33.9581H24.9541H40.5574V34.3456Z" fill="#EFE5D9"/>
<path d="M22.4406 30.0512C22.2873 30.1338 22.1404 30.3149 22.0733 30.5118C21.987 30.7564 21.9966 31.2804 22.0924 31.5123C22.2617 31.9252 22.6482 32.0967 23.006 31.9252C23.3158 31.7759 23.4499 31.4932 23.4499 30.9882C23.4531 30.5054 23.3126 30.1973 23.0187 30.0512C22.859 29.9686 22.6003 29.9686 22.4406 30.0512Z" fill="#EFE5D9"/>
<path d="M12.3853 30.5119V31.0424L12.7174 31.0297C13.0369 31.0201 13.056 31.0169 13.1518 30.9248C13.3882 30.6993 13.3371 30.1816 13.0656 30.0514C13.0145 30.0291 12.842 30.0037 12.6823 29.9942L12.3853 29.9815V30.5119Z" fill="#EFE5D9"/>
<path d="M15.7616 30.0101C15.7488 30.0196 15.7393 30.2578 15.7393 30.5373V31.0424L16.0555 31.0297C16.4036 31.0201 16.5122 30.9725 16.5985 30.7978C16.6687 30.6549 16.656 30.3309 16.5697 30.1975C16.5314 30.134 16.4867 30.0895 16.4707 30.1022C16.4547 30.1117 16.442 30.1054 16.442 30.0895C16.442 30.0164 15.8255 29.9434 15.7616 30.0101Z" fill="#EFE5D9"/>
<path d="M31.2305 30.3373V30.6866H31.4541C31.6553 30.6866 31.6872 30.6771 31.7799 30.5945C31.9651 30.4294 31.9076 30.1308 31.6713 30.0387C31.6042 30.0101 31.4764 29.9879 31.3902 29.9879H31.2305V30.3373Z" fill="#EFE5D9"/>
<path d="M31.2305 31.5411V31.9572H31.4828C31.6904 31.9572 31.7511 31.9444 31.8405 31.8841C32.0514 31.7443 32.0737 31.4426 31.8885 31.2616C31.7958 31.1726 31.7639 31.1631 31.5084 31.144L31.2305 31.1218V31.5411Z" fill="#EFE5D9"/>
<path d="M35.7021 30.5088V31.036H35.9832C36.4464 31.036 36.5997 30.9058 36.5997 30.5119C36.5997 30.2737 36.5294 30.1213 36.3825 30.0514C36.3314 30.0291 36.1589 30.0037 35.9992 29.9942L35.7021 29.9815V30.5088Z" fill="#EFE5D9"/>
<path d="M39.4556 30.1847C39.3694 30.442 39.1841 31.109 39.1969 31.1217C39.2161 31.1439 39.7591 31.1407 39.7814 31.1185C39.791 31.1121 39.7687 31.0137 39.7335 30.9025C39.6984 30.7913 39.6313 30.5785 39.5834 30.4229C39.4972 30.1434 39.4812 30.1148 39.4556 30.1847Z" fill="#EFE5D9"/>
<path d="M9.92578 34.5425C9.92578 35.0316 10.143 35.5176 10.5231 35.8829C10.6924 36.0448 10.8904 36.1655 12.6887 37.1978C13.0943 37.4297 13.5287 37.6806 13.6565 37.7568C13.7843 37.8331 13.8961 37.8966 13.9024 37.8966C13.9088 37.8966 14.1644 38.0427 14.4678 38.2174C15.474 38.8018 16.1192 39.1671 16.1511 39.1671C16.1671 39.1671 16.1862 39.1798 16.1926 39.1925C16.2054 39.2243 16.4354 39.3577 16.4769 39.3577C16.4929 39.3577 16.6526 39.2846 16.8314 39.1989C17.0135 39.1099 17.202 39.0273 17.2563 39.0115C17.3074 38.9956 17.6747 38.8908 18.0708 38.7764C19.3069 38.4175 19.9265 38.265 20.9934 38.0554C21.1882 38.0173 21.3958 37.9728 21.4565 37.9601C21.5172 37.9474 21.7759 37.8934 22.0315 37.8394C23.1015 37.6139 23.4049 37.5472 23.7275 37.471C24.0597 37.3947 24.4494 37.2582 24.5644 37.1788C24.6219 37.1406 24.6219 37.1375 24.5644 37.1089C24.3791 37.0136 23.7307 36.9469 22.8779 36.9405C20.7921 36.9183 20.2428 36.7277 20.0479 35.9654C19.9681 35.6478 20.0958 35.273 20.3737 35.003C20.7826 34.606 21.3799 34.4123 22.5425 34.2979C22.6032 34.2916 19.7892 34.282 16.2916 34.282L9.92578 34.2757V34.5425Z" fill="#EFE5D9"/>
<path d="M26.5898 34.4471C26.5547 34.7775 26.2927 35.1237 25.9733 35.2602C25.7817 35.3428 25.3696 35.4413 25.0183 35.4889C24.6957 35.5334 24.734 35.5683 25.1141 35.5747C25.4782 35.581 26.2033 35.67 26.7303 35.7684C27.1711 35.8542 27.6662 36.0321 27.877 36.1814C27.9313 36.2195 27.9888 36.2385 28.008 36.2258C28.0303 36.2131 28.0367 36.2163 28.0271 36.2354C28.0144 36.2544 28.0431 36.3021 28.091 36.3433C28.2859 36.5244 28.452 36.9151 28.452 37.1978C28.452 37.2867 28.4232 37.4487 28.3849 37.5567C28.2571 37.9378 28.0527 38.1284 27.4746 38.4047C27.2606 38.5095 27.0657 38.5953 27.0434 38.5953C26.8932 38.5953 27.251 38.6938 27.8291 38.8145C28.5925 38.9701 30.0362 39.1162 31.5023 39.1829C32.0645 39.2083 32.6746 39.2433 32.8598 39.2623C33.5785 39.329 33.4571 39.3608 34.2333 38.9161C34.6102 38.7001 35.0606 38.4397 35.2331 38.3348C35.4055 38.2332 35.5525 38.1506 35.5589 38.1506C35.5652 38.1506 35.8336 37.9982 36.1562 37.8108C36.4788 37.6265 36.7854 37.4487 36.8365 37.4201C36.9802 37.3407 37.98 36.7658 38.2898 36.5847C38.4399 36.499 38.6188 36.3973 38.6891 36.3592C39.1171 36.121 39.3982 35.9146 39.5259 35.743C39.5739 35.6795 39.6218 35.6192 39.6313 35.6096C39.807 35.454 40.0114 34.8251 40.0146 34.4408V34.2756H33.3102H26.609L26.5898 34.4471Z" fill="#EFE5D9"/>
<path d="M32.5449 39.7945C32.2747 39.9887 32.0014 40.1552 31.7312 40.3186C31.1721 40.6547 30.5658 40.8983 29.9752 41.1727C29.2998 41.4903 28.6306 41.8109 27.9552 42.1285C27.3301 42.4245 26.7144 42.7421 26.0735 43.0073C25.6243 43.1922 25.1531 43.2292 24.663 43.1768C24.1007 43.1152 23.6389 42.8377 23.1583 42.5879C22.3289 42.1563 21.5153 41.6938 20.6703 41.3022C20.0891 41.0339 19.4797 40.8274 18.9142 40.5252C18.4242 40.2662 17.9561 39.9702 17.51 39.6465C17.4283 39.5879 17.4409 39.557 17.532 39.5293C17.7896 39.4522 18.0472 39.369 18.3079 39.295C18.6472 39.1994 18.9896 39.113 19.3289 39.0175C19.9352 38.851 20.5509 38.7307 21.1666 38.6074C21.5279 38.5334 21.886 38.4501 22.2441 38.3761C22.6714 38.2867 23.1017 38.2096 23.5258 38.1141C24.063 37.9938 24.6065 37.8921 25.0714 37.5683C25.4075 37.3371 25.4201 37.0503 25.0871 36.8191C24.773 36.6032 24.4086 36.5262 24.0379 36.5107C23.2808 36.4768 22.5206 36.4491 21.7635 36.4337C21.4965 36.4275 21.2232 36.3782 20.975 36.2702C20.6294 36.1253 20.576 35.78 20.8399 35.5087C21.0661 35.2774 21.3583 35.1664 21.6598 35.1017C22.2975 34.966 22.951 34.9383 23.5981 34.8704C24.2295 34.8026 24.8672 34.7625 25.4955 34.6638C25.6557 34.6392 25.7657 34.5837 25.7845 34.4018C25.7971 34.2846 25.907 34.3771 25.9667 34.3555C26.017 34.337 26.061 34.3524 26.0672 34.4295C26.0767 34.6083 25.9604 34.8242 25.7814 34.8797C25.4641 34.9783 25.1437 35.0585 24.8107 35.0863C24.2232 35.1325 23.6358 35.1972 23.0515 35.2497C22.8284 35.2712 22.6085 35.2897 22.4012 35.3884C22.3164 35.4285 22.2378 35.4778 22.1687 35.5364C22.0682 35.6227 22.0996 35.7615 22.2033 35.8447C22.4483 36.0359 22.7468 35.9989 23.0263 36.0421C23.8651 36.1716 24.7164 36.1438 25.5552 36.2271C26.1552 36.2887 26.7584 36.335 27.3238 36.5755C27.5563 36.6742 27.773 36.7821 27.8547 37.0534C27.9332 37.3278 27.861 37.5745 27.6191 37.7379C27.3175 37.9414 26.9688 38.0524 26.6484 38.222C26.4411 38.3299 26.306 38.5056 26.3217 38.6968C26.3374 38.8664 26.5165 39.0452 26.7301 39.0976C27.239 39.224 27.7479 39.3474 28.2694 39.4214C28.8411 39.5015 29.416 39.5694 29.994 39.6187C30.6914 39.6773 31.3888 39.7205 32.0893 39.7297C32.2213 39.7359 32.3846 39.7143 32.5449 39.7945Z" fill="#EFE5D9"/>
</svg>
